<svg width="12" height="12" viewBox="0 0 12 12" fill="none" xmlns="http://www.w3.org/2000/svg">
  <g clip-path="url(#clip0_6143_2588)">
    <path
      d="M10.5857 9.8692C10.5884 9.86518 10.5924 9.86116 10.5951 9.85714C11.4723 8.81384 12 7.4692 12 6C12 4.5308 11.4723 3.18616 10.5964 2.14286C10.5938 2.13884 10.5897 2.13616 10.5871 2.13214C10.5723 2.11473 10.5589 2.09866 10.5442 2.08259C10.5388 2.07589 10.5335 2.07054 10.5281 2.06384L10.4732 2.00089L10.4719 1.99955C10.4518 1.97679 10.4304 1.95402 10.4103 1.93125L10.4089 1.92991C10.3661 1.88438 10.3232 1.83884 10.279 1.79464L10.2777 1.7933L10.2134 1.72902L10.2094 1.725C10.1893 1.70491 10.1692 1.68616 10.1491 1.66741C10.1424 1.66071 10.1357 1.65402 10.1277 1.64732C10.1143 1.63393 10.1009 1.62187 10.0875 1.60982C10.0835 1.6058 10.0781 1.60179 10.0741 1.59643C9.00536 0.605357 7.57366 0 6 0C4.42634 0 2.99464 0.605357 1.92455 1.59643C1.92054 1.60045 1.91518 1.60446 1.91116 1.60982C1.89777 1.62187 1.88437 1.63527 1.87098 1.64866C1.86429 1.65536 1.85759 1.66205 1.84955 1.66875C1.82946 1.6875 1.80938 1.70759 1.78929 1.72634L1.78527 1.73036L1.72098 1.79464L1.71964 1.79598C1.67545 1.84018 1.63259 1.88571 1.58973 1.93125L1.58839 1.93259C1.56696 1.95536 1.54688 1.97812 1.52679 2.00089L1.52545 2.00223C1.5067 2.02232 1.48795 2.04375 1.47054 2.06518C1.46518 2.07187 1.45982 2.07723 1.45446 2.08393C1.43973 2.1 1.42634 2.11741 1.41161 2.13348C1.40893 2.1375 1.40491 2.14018 1.40223 2.1442C0.527678 3.18616 0 4.5308 0 6C0 7.4692 0.527679 8.81384 1.40357 9.85714C1.40625 9.86116 1.41027 9.86518 1.41295 9.8692L1.45446 9.91875C1.45982 9.92545 1.46518 9.9308 1.47054 9.9375L1.52545 10.0004C1.52545 10.0018 1.52679 10.0018 1.52679 10.0031C1.54688 10.0259 1.56696 10.0487 1.58839 10.0701L1.58973 10.0714C1.63259 10.117 1.67545 10.1625 1.7183 10.2067L1.71964 10.208C1.74107 10.2295 1.76116 10.2509 1.78259 10.271L1.78661 10.275C1.8308 10.3192 1.87634 10.3621 1.92188 10.4036C2.99464 11.3946 4.42634 12 6 12C7.57366 12 9.00536 11.3946 10.0754 10.4036C10.1211 10.3618 10.1657 10.3189 10.2094 10.275L10.2134 10.271C10.2348 10.2496 10.2562 10.2295 10.2763 10.208L10.2777 10.2067C10.3219 10.1625 10.3647 10.117 10.4063 10.0714L10.4076 10.0701C10.4277 10.0473 10.4491 10.0259 10.4692 10.0031C10.4692 10.0018 10.4705 10.0018 10.4705 10.0004C10.4893 9.98036 10.508 9.95893 10.5254 9.9375C10.5308 9.9308 10.5362 9.92545 10.5415 9.91875C10.5567 9.9026 10.5714 9.88608 10.5857 9.8692V9.8692ZM10.6406 7.95937C10.4558 8.39598 10.2121 8.80045 9.91473 9.16741C9.57988 8.87802 9.21378 8.62691 8.82321 8.41875C8.97857 7.79062 9.075 7.10089 9.10045 6.375H11.0223C10.9821 6.92277 10.8536 7.45446 10.6406 7.95937ZM11.0223 5.625H9.10045C9.075 4.89911 8.97857 4.20937 8.82321 3.58125C9.21562 3.37232 9.58125 3.12054 9.91473 2.83259C10.561 3.62809 10.9476 4.60277 11.0223 5.625V5.625ZM7.95937 1.35938C8.49107 1.58438 8.97455 1.89509 9.40045 2.28616C9.15304 2.49682 8.88673 2.68422 8.60491 2.84598C8.39464 2.2433 8.12545 1.71964 7.81205 1.30045C7.86161 1.3192 7.91116 1.33929 7.95937 1.35938ZM6.74598 10.7424C6.62277 10.8388 6.49955 10.9125 6.375 10.9621V8.47768C6.90642 8.51475 7.42901 8.63309 7.92455 8.82857C7.81339 9.15804 7.68482 9.46205 7.53616 9.73661C7.30313 10.1705 7.02991 10.5174 6.74598 10.7424ZM7.53616 2.26339C7.68348 2.53929 7.81339 2.8433 7.92455 3.17143C7.42901 3.36691 6.90642 3.48525 6.375 3.52232V1.03929C6.49821 1.08884 6.62277 1.16116 6.74598 1.25893C7.02991 1.48259 7.30313 1.82946 7.53616 2.26339V2.26339ZM6.375 7.72634V6.375H8.35045C8.32902 6.96696 8.25536 7.54152 8.13214 8.08661L8.12813 8.10268C7.56607 7.88954 6.97501 7.76266 6.375 7.72634V7.72634ZM6.375 5.625V4.27366C6.98839 4.23616 7.57768 4.10625 8.12813 3.89732L8.13214 3.91339C8.25536 4.45848 8.32902 5.0317 8.35045 5.625H6.375ZM5.625 6.375V7.72634C5.01161 7.76384 4.42232 7.89375 3.87188 8.10268L3.86786 8.08661C3.74464 7.54152 3.67098 6.9683 3.64955 6.375H5.625ZM3.64955 5.625C3.67098 5.03304 3.74464 4.45848 3.86786 3.91339L3.87188 3.89732C4.42232 4.10625 5.01027 4.23616 5.625 4.27366V5.625H3.64955ZM5.625 8.47768V10.9607C5.50179 10.9112 5.37723 10.8388 5.25402 10.7411C4.97009 10.5174 4.69554 10.1692 4.4625 9.73527C4.31518 9.45938 4.18527 9.15536 4.07411 8.82723C4.57232 8.6317 5.09063 8.51518 5.625 8.47768ZM5.625 3.52232C5.09358 3.48525 4.57099 3.36691 4.07545 3.17143C4.18661 2.84196 4.31518 2.53795 4.46384 2.26339C4.69687 1.82946 4.97009 1.48125 5.25536 1.25759C5.37857 1.16116 5.50179 1.0875 5.62634 1.03795V3.52232H5.625ZM4.04063 1.35938C4.09018 1.33929 4.13839 1.3192 4.18795 1.30045C3.87455 1.71964 3.60536 2.2433 3.39509 2.84598C3.11384 2.68527 2.84732 2.49777 2.59955 2.28616C3.02545 1.89509 3.50893 1.58438 4.04063 1.35938V1.35938ZM1.35938 4.04063C1.5442 3.60402 1.78795 3.19955 2.08527 2.83259C2.41875 3.12054 2.78438 3.37232 3.17679 3.58125C3.02143 4.20937 2.925 4.89911 2.89955 5.625H0.977679C1.01786 5.07723 1.14643 4.54554 1.35938 4.04063ZM0.977679 6.375H2.89955C2.925 7.10089 3.02143 7.79062 3.17679 8.41875C2.78622 8.62691 2.42012 8.87802 2.08527 9.16741C1.43897 8.37191 1.05237 7.39723 0.977679 6.375V6.375ZM4.04063 10.6406C3.50893 10.4156 3.02545 10.1049 2.59955 9.71384C2.84732 9.50223 3.11384 9.31607 3.39509 9.15402C3.60536 9.7567 3.87455 10.2804 4.18795 10.6996C4.13839 10.6808 4.08884 10.6607 4.04063 10.6406ZM7.95937 10.6406C7.90982 10.6607 7.86161 10.6808 7.81205 10.6996C8.12545 10.2804 8.39464 9.7567 8.60491 9.15402C8.88616 9.31473 9.15268 9.50223 9.40045 9.71384C8.97691 10.1033 8.48942 10.4168 7.95937 10.6406V10.6406Z"
      fill="#ABC4FF" />
  </g>
  <defs>
    <clipPath id="clip0_6143_2588">
      <rect width="12" height="12" fill="white" />
    </clipPath>
  </defs>
</svg>