<svg width="14" height="14" viewBox="0 0 14 14" fill="none" xmlns="http://www.w3.org/2000/svg">
<path fill-rule="evenodd" clip-rule="evenodd" d="M0.466667 0C0.7244 0 0.933333 0.241077 0.933333 0.538462L0.933333 13.4615C0.933333 13.7589 0.724399 14 0.466666 14C0.208933 14 0 13.7589 0 13.4615V0.538462C0 0.241077 0.208934 0 0.466667 0ZM2.5465 9.42482C2.63772 9.61779 2.92731 9.5528 2.92731 9.33935V7.49962H11.0728V8.52565C11.0728 8.72058 11.3232 8.80034 11.4359 8.64134L12.518 7.11531C12.5671 7.04601 12.5671 6.95324 12.518 6.88394L11.4359 5.35791C11.3232 5.1989 11.0728 5.27867 11.0728 5.47359V6.49962H2.92731V4.6599C2.92731 4.44645 2.63772 4.38145 2.5465 4.57442L1.44045 6.91415C1.41487 6.96826 1.41487 7.03099 1.44045 7.0851L2.5465 9.42482ZM14 0.538462C14 0.241077 13.7911 0 13.5333 0C13.2756 0 13.0667 0.241077 13.0667 0.538462L13.0667 13.4615C13.0667 13.7589 13.2756 14 13.5333 14C13.7911 14 14 13.7589 14 13.4615L14 0.538462Z" fill="url(#paint0_linear_10301_9697)"/>
<defs>
<linearGradient id="paint0_linear_10301_9697" x1="0.466667" y1="-6.13057e-07" x2="15.7684" y2="12.3469" gradientUnits="userSpaceOnUse">
<stop stop-color="#39D0D8" stop-opacity="0.8"/>
<stop offset="1" stop-color="#39D0D8" stop-opacity="0.6"/>
</linearGradient>
</defs>
</svg>
