<svg width="12" height="12" viewBox="0 0 12 12" fill="none" xmlns="http://www.w3.org/2000/svg">
<g clip-path="url(#clip0_9394_15648)">
<path d="M8.19137 4.13635H7.64176C7.52223 4.13635 7.40856 4.19377 7.33825 4.29221L5.49606 6.8469L4.66168 5.68909C4.59137 5.59182 4.47887 5.53323 4.35817 5.53323H3.80856C3.73239 5.53323 3.68786 5.61995 3.73239 5.68206L5.19254 7.70706C5.22704 7.7552 5.27251 7.79443 5.32519 7.82149C5.37787 7.84856 5.43625 7.86267 5.49547 7.86267C5.5547 7.86267 5.61307 7.84856 5.66576 7.82149C5.71844 7.79443 5.76391 7.7552 5.7984 7.70706L8.26637 4.28518C8.31208 4.22307 8.26754 4.13635 8.19137 4.13635Z" fill="#39D0D8"/>
<path d="M6 0.75C3.10078 0.75 0.75 3.10078 0.75 6C0.75 8.89922 3.10078 11.25 6 11.25C8.89922 11.25 11.25 8.89922 11.25 6C11.25 3.10078 8.89922 0.75 6 0.75ZM6 10.3594C3.59297 10.3594 1.64062 8.40703 1.64062 6C1.64062 3.59297 3.59297 1.64062 6 1.64062C8.40703 1.64062 10.3594 3.59297 10.3594 6C10.3594 8.40703 8.40703 10.3594 6 10.3594Z" fill="#39D0D8"/>
</g>
<defs>
<clipPath id="clip0_9394_15648">
<rect width="12" height="12" fill="white"/>
</clipPath>
</defs>
</svg>
