<svg width="12" height="12" viewBox="0 0 12 12" fill="none" xmlns="http://www.w3.org/2000/svg">
  <g opacity="0.5">
    <path
      d="M6.40217 1.17969H5.5986C5.52717 1.17969 5.49145 1.2154 5.49145 1.28683V5.49219H1.5007C1.42927 5.49219 1.39355 5.5279 1.39355 5.59933V6.4029C1.39355 6.47433 1.42927 6.51005 1.5007 6.51005H5.49145V10.7154C5.49145 10.7868 5.52717 10.8225 5.5986 10.8225H6.40217C6.4736 10.8225 6.50931 10.7868 6.50931 10.7154V6.51005H10.5007C10.5721 6.51005 10.6078 6.47433 10.6078 6.4029V5.59933C10.6078 5.5279 10.5721 5.49219 10.5007 5.49219H6.50931V1.28683C6.50931 1.2154 6.4736 1.17969 6.40217 1.17969Z"
      fill="#ABC4FF" />
  </g>
</svg>