<svg width="12" height="12" viewBox="0 0 12 12" fill="none" xmlns="http://www.w3.org/2000/svg">
  <g opacity="0.5">
    <path
      d="M9.76283 2.38359H4.04408V1.39252C4.04408 1.30278 3.94096 1.25323 3.87132 1.30814L1.96953 2.80814C1.95673 2.81816 1.94637 2.83097 1.93925 2.84559C1.93212 2.86021 1.92842 2.87625 1.92842 2.89252C1.92842 2.90878 1.93212 2.92483 1.93925 2.93944C1.94637 2.95406 1.95673 2.96687 1.96953 2.97689L3.87132 4.47689C3.94096 4.5318 4.04408 4.48225 4.04408 4.39252V3.40144H9.60212V9.69609H1.48605C1.42712 9.69609 1.37891 9.7443 1.37891 9.80323V10.6068C1.37891 10.6657 1.42712 10.7139 1.48605 10.7139H9.76283C10.2356 10.7139 10.62 10.3296 10.62 9.8568V3.24073C10.62 2.76796 10.2356 2.38359 9.76283 2.38359Z"
      fill="#ABC4FF" />
  </g>
</svg>