<svg width="16" height="16" viewBox="0 0 16 16" fill="none" xmlns="http://www.w3.org/2000/svg">
<path d="M13.9656 1C14.5656 1 14.9656 1.4 14.9656 2V2.95C14.9656 4.4 14.4156 5.75 13.3656 6.85L11.4656 8.7V12.5C11.4656 12.65 11.4156 12.8 11.2656 12.9L8.76563 14.9C8.66563 14.95 8.56563 15 8.46563 15C8.41563 15 8.36563 15 8.26563 14.95C8.11563 14.9 7.96563 14.75 7.96563 14.55L7.46563 11.05L8.46563 10.9L8.86563 13.55L10.5156 12.25V8.5C10.5156 8.35 10.5656 8.25 10.6656 8.15L12.7156 6.15C13.5656 5.25 14.0156 4.15 14.0156 2.95V2H13.0656C11.9156 2 10.7156 2.5 9.91563 3.3L7.86563 5.35C7.71563 5.45 7.61563 5.5 7.46563 5.5H3.71563L2.41563 7.15L5.06563 7.55L4.91563 8.55L1.41563 8.05C1.21563 8 1.06563 7.9 1.01563 7.75C0.965631 7.6 0.965631 7.4 1.06563 7.25L3.06563 4.75C3.16563 4.55 3.31563 4.5 3.46563 4.5H7.26563L9.16563 2.6C10.1656 1.6 11.6156 1 13.0156 1H13.9656ZM7.59186 7.66652L8.29897 8.37363L4.30385 12.3687L3.59675 11.6616L7.59186 7.66652Z" fill="url(#paint0_linear)"/>
<defs>
<linearGradient id="paint0_linear" x1="0.982788" y1="1" x2="14.9828" y2="14.9828" gradientUnits="userSpaceOnUse">
<stop stop-color="#39D0D8" stop-opacity="0.8"/>
<stop offset="1" stop-color="#39D0D8" stop-opacity="0.6"/>
</linearGradient>
</defs>
</svg>
