<svg width="16" height="16" viewBox="0 0 16 16" fill="none" xmlns="http://www.w3.org/2000/svg">
<path d="M13.0215 11.0215C12.6689 11.0267 12.3239 11.125 12.0215 11.3065L10.4765 9.76154C11.2157 8.72113 11.2157 7.32695 10.4765 6.28654L12.0215 4.73654C12.8896 5.24498 14.0003 5.02945 14.6152 4.23322C15.2301 3.437 15.1579 2.30792 14.4465 1.59655C13.7352 0.885172 12.6061 0.812936 11.8099 1.42786C11.0136 2.04278 10.7981 3.15344 11.3065 4.02154L9.76154 5.56654C8.72113 4.82738 7.32695 4.82738 6.28654 5.56654L4.73654 4.02154C5.24498 3.15344 5.02945 2.04278 4.23322 1.42786C3.437 0.812936 2.30792 0.885172 1.59655 1.59655C0.885172 2.30792 0.812936 3.437 1.42786 4.23322C2.04278 5.02945 3.15344 5.24498 4.02154 4.73654L5.56654 6.28154C4.82738 7.32195 4.82738 8.71613 5.56654 9.75654L4.02154 11.3065C3.15344 10.7981 2.04278 11.0136 1.42786 11.8099C0.812936 12.6061 0.885172 13.7352 1.59655 14.4465C2.30792 15.1579 3.437 15.2301 4.23322 14.6152C5.02945 14.0003 5.24498 12.8896 4.73654 12.0215L6.28154 10.4765C7.32195 11.2157 8.71613 11.2157 9.75654 10.4765L11.3065 12.0215C10.8532 12.8069 10.9849 13.7989 11.6275 14.4387C12.2701 15.0786 13.2627 15.206 14.0461 14.7492C14.8294 14.2924 15.2074 13.3658 14.9671 12.4914C14.7268 11.6171 13.9283 11.0138 13.0215 11.0215ZM13.0215 2.02154C13.5738 2.02154 14.0215 2.46926 14.0215 3.02154C14.0215 3.57383 13.5738 4.02154 13.0215 4.02154C12.4693 4.02154 12.0215 3.57383 12.0215 3.02154C12.0215 2.46926 12.4693 2.02154 13.0215 2.02154ZM2.02154 3.02154C2.02154 2.46926 2.46926 2.02154 3.02154 2.02154C3.57383 2.02154 4.02154 2.46926 4.02154 3.02154C4.02154 3.57383 3.57383 4.02154 3.02154 4.02154C2.75632 4.02154 2.50197 3.91618 2.31443 3.72865C2.1269 3.54111 2.02154 3.28676 2.02154 3.02154ZM3.02154 14.0215C2.46926 14.0215 2.02154 13.5738 2.02154 13.0215C2.02154 12.4693 2.46926 12.0215 3.02154 12.0215C3.57383 12.0215 4.02154 12.4693 4.02154 13.0215C4.02154 13.5738 3.57383 14.0215 3.02154 14.0215ZM8.02154 10.0215C6.91697 10.0215 6.02154 9.12611 6.02154 8.02154C6.02154 6.91697 6.91697 6.02154 8.02154 6.02154C9.12611 6.02154 10.0215 6.91697 10.0215 8.02154C10.0215 8.55197 9.81083 9.06068 9.43575 9.43575C9.06068 9.81083 8.55197 10.0215 8.02154 10.0215ZM13.0215 14.0215C12.4693 14.0215 12.0215 13.5738 12.0215 13.0215C12.0215 12.4693 12.4693 12.0215 13.0215 12.0215C13.5738 12.0215 14.0215 12.4693 14.0215 13.0215C14.0215 13.5738 13.5738 14.0215 13.0215 14.0215Z" fill="url(#paint0_linear)"/>
<defs>
<linearGradient id="paint0_linear" x1="1.01074" y1="1.01074" x2="15.0323" y2="15.0388" gradientUnits="userSpaceOnUse">
<stop stop-color="#39D0D8" stop-opacity="0.8"/>
<stop offset="1" stop-color="#39D0D8" stop-opacity="0.6"/>
</linearGradient>
</defs>
</svg>
