<svg class="icon" viewBox="0 0 1024 1024" version="1.1" xmlns="http://www.w3.org/2000/svg" p-id="3617"
  xmlns:xlink="http://www.w3.org/1999/xlink" width="16" height="16">
  <defs>
    <linearGradient id="paint0_linear" x1="1.01074" y1="1.01074" x2="15.0323" y2="15.0388"
      gradientUnits="userSpaceOnUse">
      <stop stop-color="#39D0D8" stop-opacity="0.8" />
      <stop offset="1" stop-color="#39D0D8" stop-opacity="0.6" />
    </linearGradient>
  </defs>
  <path
    d="M561.92 28.7744a99.84 99.84 0 0 0-99.84 0l-343.552 198.3488a99.84 99.84 0 0 0-49.9712 86.528v396.6976c0 35.6864 19.0464 68.608 49.92 86.4768l343.6032 198.3488a99.84 99.84 0 0 0 99.84 0l343.552-198.3488a99.84 99.84 0 0 0 49.9712-86.4768V313.6a99.84 99.84 0 0 0-49.92-86.4768L561.92 28.7744z m-66.56 57.6512a33.28 33.28 0 0 1 33.28 0l343.552 198.3488a33.28 33.28 0 0 1 16.6912 28.8256v396.8a33.28 33.28 0 0 1-16.64 28.7744l-343.6032 198.3488a33.28 33.28 0 0 1-33.28 0l-343.552-198.3488a33.28 33.28 0 0 1-16.6912-28.8256V313.6a33.28 33.28 0 0 1 16.64-28.8256l343.6032-198.3488z m-137.6768 562.176a34.1504 34.1504 0 0 0 63.1296-17.9712v-238.08a34.1504 34.1504 0 1 0-68.2496 0v118.3232L267.9296 374.528A34.1504 34.1504 0 0 0 204.8 392.5504v238.08a34.1504 34.1504 0 1 0 68.2496 0v-118.3744l84.6336 136.3456z m144.0768 16.128a34.1504 34.1504 0 0 1-34.0992-34.1504V392.5504c0-18.8928 15.2576-34.1504 34.0992-34.1504h94.72a34.1504 34.1504 0 1 1 0 68.2496h-60.5696v50.7904h60.5184a34.1504 34.1504 0 1 1 0 68.2496h-60.5184v84.9408a34.1504 34.1504 0 0 1-34.1504 34.0992z m223.9488-238.08h-33.4848a34.1504 34.1504 0 1 1 0-68.2496H827.4944a34.1504 34.1504 0 1 1 0 68.2496h-33.4848v203.9296a34.0992 34.0992 0 1 1-68.3008 0V426.6496z"
    p-id="3618" fill="url(#paint0_linear)"></path>
</svg>