<svg width="16" height="16" viewBox="0 0 16 16" fill="none" xmlns="http://www.w3.org/2000/svg">
<g clip-path="url(#clip0_9637_11722)">
<g filter="url(#filter0_b_9637_11722)">
<path d="M8 16C12.4183 16 16 12.4183 16 8C16 3.58172 12.4183 0 8 0C3.58172 0 0 3.58172 0 8C0 12.4183 3.58172 16 8 16Z" fill="url(#paint0_linear_9637_11722)"/>
</g>
<path fill-rule="evenodd" clip-rule="evenodd" d="M3 3H3.71429V12.2857H13V13H3.35714C3.1599 13 3 12.8401 3 12.6429V3ZM13 5.5H10.5V6.21429H11.7807L9.07142 8.92354L7.53821 7.39032C7.39874 7.25088 7.17264 7.25088 7.03317 7.39032L4.42857 9.99496L4.9336 10.5L7.28571 8.14789L8.81892 9.68111C8.95839 9.82055 9.18449 9.82055 9.32396 9.68111L12.2857 6.71932V8H13V5.5Z" fill="url(#paint1_linear_9637_11722)"/>
</g>
<defs>
<filter id="filter0_b_9637_11722" x="-1.6" y="-1.6" width="19.2" height="19.2" filterUnits="userSpaceOnUse" color-interpolation-filters="sRGB">
<feFlood flood-opacity="0" result="BackgroundImageFix"/>
<feGaussianBlur in="BackgroundImage" stdDeviation="0.8"/>
<feComposite in2="SourceAlpha" operator="in" result="effect1_backgroundBlur_9637_11722"/>
<feBlend mode="normal" in="SourceGraphic" in2="effect1_backgroundBlur_9637_11722" result="shape"/>
</filter>
<linearGradient id="paint0_linear_9637_11722" x1="8" y1="0" x2="20.8147" y2="9.51714" gradientUnits="userSpaceOnUse">
<stop stop-color="#ABC4FF" stop-opacity="0.2"/>
<stop offset="1" stop-color="#ABC4FF" stop-opacity="0"/>
</linearGradient>
<linearGradient id="paint1_linear_9637_11722" x1="3" y1="3" x2="13" y2="13" gradientUnits="userSpaceOnUse">
<stop stop-color="#39D0D8" stop-opacity="0.8"/>
<stop offset="1" stop-color="#39D0D8" stop-opacity="0.6"/>
</linearGradient>
<clipPath id="clip0_9637_11722">
<rect width="16" height="16" fill="white"/>
</clipPath>
</defs>
</svg>
