<svg width="20" height="20" viewBox="0 0 20 20" fill="none" xmlns="http://www.w3.org/2000/svg">
<path d="M17.157 2.84208C15.2686 0.953683 12.2128 0.953683 10.3267 2.84208L8.16371 5.00502L9.30211 6.14342L11.4651 3.98047C12.6659 2.77958 14.6927 2.65234 16.0186 3.98047C17.3467 5.30859 17.2195 7.33315 16.0186 8.53404L13.8557 10.697L14.9963 11.8376L17.1593 9.67467C19.0432 7.78627 19.0432 4.73047 17.157 2.84208ZM8.53871 16.0162C7.33782 17.2171 5.31104 17.3443 3.98514 16.0162C2.65702 14.6881 2.78425 12.6635 3.98514 11.4626L6.14809 9.29967L5.00746 8.15904L2.84452 10.322C0.956124 12.2104 0.956124 15.2662 2.84452 17.1523C4.73291 19.0385 7.78871 19.0407 9.67488 17.1523L11.8378 14.9894L10.6994 13.851L8.53871 16.0162ZM4.38246 3.24386C4.3489 3.21063 4.30358 3.19199 4.25635 3.19199C4.20912 3.19199 4.16379 3.21063 4.13023 3.24386L3.2463 4.12779C3.21307 4.16135 3.19443 4.20668 3.19443 4.25391C3.19443 4.30114 3.21307 4.34646 3.2463 4.38002L15.6213 16.755C15.6905 16.8242 15.8043 16.8242 15.8735 16.755L16.7575 15.8711C16.8267 15.8019 16.8267 15.6881 16.7575 15.6189L4.38246 3.24386Z" fill="#39D0D8"/>
</svg>
