<svg width="16" height="16" viewBox="0 0 16 16" fill="none" xmlns="http://www.w3.org/2000/svg">
<path d="M9.42913 2.00194V14.4287C9.42913 14.5073 9.49341 14.5716 9.57199 14.5716H10.6434C10.722 14.5716 10.7863 14.5073 10.7863 14.4287V3.62158L14.0541 6.19837C14.147 6.27158 14.2863 6.20551 14.2863 6.08587V4.79122C14.2863 4.70372 14.247 4.62158 14.1773 4.56622L10.3541 1.55194C9.97913 1.25729 9.42913 1.52337 9.42913 2.00194ZM5.21484 1.57158L5.21484 12.3787L1.94699 9.80194C1.85413 9.72872 1.71484 9.7948 1.71484 9.91444V11.2091C1.71484 11.2966 1.75413 11.3787 1.82377 11.4341L5.64699 14.4484C6.02199 14.743 6.57199 14.4769 6.57199 14.0002L6.57199 1.57158C6.57199 1.49301 6.5077 1.42872 6.42913 1.42872H5.3577C5.27913 1.42872 5.21484 1.49301 5.21484 1.57158Z" fill="#39D0D8"/>
</svg>
