<svg width="18" height="16" viewBox="0 0 18 16" fill="none" xmlns="http://www.w3.org/2000/svg">
<path d="M17.7497 0.138672H0.249738C0.151524 0.138672 0.071167 0.219029 0.071167 0.317243V1.74581C0.071167 1.84403 0.151524 1.92439 0.249738 1.92439H17.7497C17.848 1.92439 17.9283 1.84403 17.9283 1.74581V0.317243C17.9283 0.219029 17.848 0.138672 17.7497 0.138672ZM17.7497 14.0672H0.249738C0.151524 14.0672 0.071167 14.1476 0.071167 14.2458V15.6744C0.071167 15.7726 0.151524 15.853 0.249738 15.853H17.7497C17.848 15.853 17.9283 15.7726 17.9283 15.6744V14.2458C17.9283 14.1476 17.848 14.0672 17.7497 14.0672ZM17.7497 7.10296H0.249738C0.151524 7.10296 0.071167 7.18332 0.071167 7.28153V8.7101C0.071167 8.80832 0.151524 8.88867 0.249738 8.88867H17.7497C17.848 8.88867 17.9283 8.80832 17.9283 8.7101V7.28153C17.9283 7.18332 17.848 7.10296 17.7497 7.10296Z" fill="rgba(57,208,216,0.8)"/>
</svg>
