<svg width="16" height="16" viewBox="0 0 16 16" fill="none" xmlns="http://www.w3.org/2000/svg">
<path d="M13.5753 11.358C13.1283 10.9107 12.6061 10.5456 12.0325 10.2794C12.8414 9.62408 13.3575 8.62408 13.3575 7.50265C13.3575 5.52408 11.7075 3.90087 9.72889 3.93122C7.78067 3.96158 6.21103 5.54908 6.21103 7.50265C6.21103 8.62408 6.72889 9.62408 7.53603 10.2794C6.96229 10.5454 6.43999 10.9105 5.99317 11.358C5.01817 12.3348 4.4646 13.6241 4.42889 14.9991C4.42841 15.0181 4.43175 15.0371 4.43872 15.0548C4.44568 15.0726 4.45613 15.0888 4.46945 15.1024C4.48276 15.1161 4.49867 15.1269 4.51624 15.1343C4.53381 15.1417 4.55268 15.1455 4.57174 15.1455H5.57174C5.64853 15.1455 5.71282 15.0848 5.7146 15.008C5.74853 13.9723 6.16817 13.0027 6.90567 12.2669C7.28307 11.8875 7.73196 11.5868 8.22637 11.382C8.72078 11.1773 9.2509 11.0726 9.78603 11.0741C10.8735 11.0741 11.8967 11.4973 12.6664 12.2669C13.4021 13.0027 13.8217 13.9723 13.8575 15.008C13.8592 15.0848 13.9235 15.1455 14.0003 15.1455H15.0003C15.0194 15.1455 15.0383 15.1417 15.0558 15.1343C15.0734 15.1269 15.0893 15.1161 15.1026 15.1024C15.1159 15.0888 15.1264 15.0726 15.1333 15.0548C15.1403 15.0371 15.1436 15.0181 15.1432 14.9991C15.1075 13.6241 14.5539 12.3348 13.5753 11.358ZM9.78603 9.78837C9.17532 9.78837 8.60032 9.55087 8.16996 9.11872C7.95398 8.90445 7.78338 8.64887 7.66833 8.36722C7.55328 8.08558 7.49614 7.78365 7.50032 7.47944C7.50567 6.89372 7.7396 6.32765 8.14853 5.90801C8.5771 5.46872 9.15032 5.22408 9.76282 5.21694C10.3682 5.21158 10.9557 5.44729 11.3878 5.87051C11.8307 6.30444 12.0735 6.8848 12.0735 7.50265C12.0735 8.11337 11.836 8.68658 11.4039 9.11872C11.1919 9.33175 10.9397 9.50062 10.662 9.61557C10.3843 9.73051 10.0866 9.78924 9.78603 9.78837ZM5.31282 7.97408C5.29674 7.81872 5.28782 7.66158 5.28782 7.50265C5.28782 7.21872 5.3146 6.94194 5.3646 6.6723C5.3771 6.60801 5.34317 6.54194 5.28424 6.51515C5.04139 6.40622 4.81817 6.25622 4.62532 6.06694C4.39807 5.84659 4.21924 5.5813 4.10025 5.28798C3.98127 4.99466 3.92473 4.67976 3.93424 4.36337C3.95032 3.79015 4.18067 3.24551 4.58246 2.83479C5.02353 2.38301 5.61639 2.13658 6.24674 2.14372C6.81639 2.14908 7.36639 2.36872 7.78246 2.75801C7.92353 2.89015 8.04496 3.03658 8.14674 3.19372C8.18246 3.24908 8.2521 3.27229 8.31282 3.25087C8.6271 3.14194 8.95924 3.06515 9.30031 3.02944C9.40032 3.01872 9.45746 2.91158 9.41282 2.82229C8.83246 1.67408 7.64674 0.881223 6.27532 0.859794C4.29496 0.829437 2.64496 2.45265 2.64496 4.42944C2.64496 5.55087 3.16103 6.55087 3.96996 7.20622C3.4021 7.46872 2.87889 7.83122 2.42532 8.28479C1.44674 9.26158 0.893173 10.5509 0.857459 11.9277C0.856982 11.9467 0.860325 11.9657 0.867291 11.9834C0.874256 12.0012 0.884703 12.0173 0.898017 12.031C0.91133 12.0446 0.92724 12.0555 0.944809 12.0629C0.962379 12.0703 0.981251 12.0741 1.00032 12.0741H2.0021C2.07889 12.0741 2.14317 12.0134 2.14496 11.9366C2.17889 10.9009 2.59853 9.93122 3.33603 9.19551C3.86103 8.67051 4.50389 8.30622 5.20567 8.12944C5.27532 8.11158 5.32174 8.04551 5.31282 7.97408Z" fill="url(#paint0_linear)"/>
<defs>
<linearGradient id="paint0_linear" x1="0.857414" y1="0.859375" x2="15.1435" y2="15.1452" gradientUnits="userSpaceOnUse">
<stop stop-color="#39D0D8" stop-opacity="0.8"/>
<stop offset="1" stop-color="#39D0D8" stop-opacity="0.6"/>
</linearGradient>
</defs>
</svg>
