<svg width="20" height="20" viewBox="0 0 20 20" fill="none" xmlns="http://www.w3.org/2000/svg">
  <g opacity="0.5">
    <path
      d="M9.5 19.375C9.5 19.6511 9.72386 19.875 10 19.875C10.2761 19.875 10.5 19.6511 10.5 19.375H9.5ZM10.5 0.625C10.5 0.348858 10.2761 0.125 10 0.125C9.72386 0.125 9.5 0.348858 9.5 0.625H10.5ZM5.75 11.5625C5.75 11.8386 5.97386 12.0625 6.25 12.0625C6.52614 12.0625 6.75 11.8386 6.75 11.5625H5.75ZM6.75 2.25137C6.75 1.97523 6.52614 1.75137 6.25 1.75137C5.97386 1.75137 5.75 1.97523 5.75 2.25137H6.75ZM13.25 11.5625C13.25 11.8386 13.4739 12.0625 13.75 12.0625C14.0261 12.0625 14.25 11.8386 14.25 11.5625H13.25ZM14.25 2.25127C14.25 1.97512 14.0261 1.75127 13.75 1.75127C13.4739 1.75127 13.25 1.97512 13.25 2.25127H14.25ZM12.6517 15.1517L13.0052 15.5052L12.6517 15.1517ZM7.34835 15.1517L6.9948 15.5052H6.9948L7.34835 15.1517ZM10 12.0751L9.70086 12.4757L10 12.6991L10.2991 12.4757L10 12.0751ZM13.6875 4.3L13.5018 3.83576L13.44 3.86048L13.3869 3.90049L13.6875 4.3ZM10 7.075L9.69935 7.47451L10 7.70076L10.3006 7.47451L10 7.075ZM6.3125 4.3L6.61315 3.90049L6.55998 3.86048L6.49819 3.83576L6.3125 4.3ZM13.25 5V12.5H14.25V5H13.25ZM13.25 12.5C13.25 13.362 12.9076 14.1886 12.2981 14.7981L13.0052 15.5052C13.8022 14.7082 14.25 13.6272 14.25 12.5H13.25ZM12.2981 14.7981C11.6886 15.4076 10.862 15.75 10 15.75V16.75C11.1272 16.75 12.2082 16.3022 13.0052 15.5052L12.2981 14.7981ZM10 15.75C9.13805 15.75 8.3114 15.4076 7.7019 14.7981L6.9948 15.5052C7.79183 16.3022 8.87283 16.75 10 16.75V15.75ZM7.7019 14.7981C7.09241 14.1886 6.75 13.362 6.75 12.5H5.75C5.75 13.6272 6.19777 14.7082 6.9948 15.5052L7.7019 14.7981ZM6.75 12.5V5H5.75V12.5H6.75ZM5.95086 9.6757L9.70086 12.4757L10.2991 11.6744L6.54914 8.87441L5.95086 9.6757ZM10.2991 12.4757L14.0491 9.6757L13.4509 8.87441L9.70086 11.6744L10.2991 12.4757ZM13.5643 3.81076L13.5018 3.83576L13.8732 4.76424L13.9357 4.73924L13.5643 3.81076ZM13.3869 3.90049L9.69935 6.67549L10.3006 7.47451L13.9882 4.69951L13.3869 3.90049ZM10.3006 6.67549L6.61315 3.90049L6.01185 4.69951L9.69935 7.47451L10.3006 6.67549ZM6.49819 3.83576L6.43569 3.81076L6.06431 4.73924L6.12681 4.76424L6.49819 3.83576ZM10.5 19.375V0.625H9.5V19.375H10.5ZM6.75 11.5625V2.25137H5.75V11.5625H6.75ZM14.25 11.5625V2.25127H13.25V11.5625H14.25Z"
      fill="#ABC4FF" />
  </g>
</svg>