<svg width="20" height="20" viewBox="0 0 20 20" fill="none" xmlns="http://www.w3.org/2000/svg">
  <path
    d="M11.1531 10.1115C11.1531 12.9344 8.88021 15.2228 6.07663 15.2228C3.27305 15.2228 1 12.9338 1 10.1115C1 7.28909 3.27287 5 6.07663 5C8.88038 5 11.1531 7.28857 11.1531 10.1115ZM16.7221 10.1115C16.7221 12.7686 15.5857 14.9235 14.1838 14.9235C12.7819 14.9235 11.6455 12.7686 11.6455 10.1115C11.6455 7.45432 12.7818 5.29942 14.1836 5.29942C15.5855 5.29942 16.722 7.45363 16.722 10.1115H16.7221ZM19 10.1115C19 12.4916 18.6004 14.4223 18.1073 14.4223C17.6142 14.4223 17.2147 12.4921 17.2147 10.1115C17.2147 7.7308 17.6143 5.80063 18.1073 5.80063C18.6002 5.80063 19 7.73062 19 10.1115Z"
    fill="#ABC4FF" fill-opacity="0.5" />
</svg>