<svg width="12" height="12" viewBox="0 0 12 12" fill="none" xmlns="http://www.w3.org/2000/svg">
  <g opacity="0.5">
    <path
      d="M11.1973 5.99169C11.1932 3.0332 8.79994 0.642578 5.84146 0.642578C4.12717 0.642578 2.60039 1.44883 1.62003 2.7024L0.977172 2.20017C0.90619 2.14526 0.803065 2.19615 0.804404 2.28454L0.815118 4.52115C0.815118 4.59079 0.880744 4.64169 0.947708 4.62427L3.12137 4.09526C3.14096 4.09048 3.15881 4.08027 3.17286 4.0658C3.18691 4.05133 3.19659 4.03319 3.20079 4.01346C3.20498 3.99373 3.20353 3.97322 3.19659 3.95429C3.18964 3.93535 3.1775 3.91876 3.16155 3.90642L2.46378 3.36133C2.57092 3.22472 2.68744 3.09347 2.81199 2.96892C3.20222 2.57734 3.66481 2.26531 4.17405 2.05017C4.70173 1.82651 5.26289 1.71401 5.84146 1.71401C6.42003 1.71401 6.98119 1.82651 7.50887 2.05017C8.01914 2.26579 8.47717 2.57517 8.87092 2.96892C9.26467 3.36267 9.57405 3.8207 9.78967 4.33097C10.0133 4.85999 10.1258 5.42115 10.1258 5.99972C10.1258 6.57829 10.0133 7.13945 9.78967 7.66713C9.57405 8.1774 9.26467 8.63544 8.87092 9.02919C8.47717 9.42294 8.01914 9.73231 7.50887 9.94794C6.98119 10.1716 6.42003 10.2841 5.84146 10.2841C5.26289 10.2841 4.70173 10.1716 4.17405 9.94794C3.66481 9.7328 3.20222 9.42077 2.81199 9.02919C2.71155 8.92874 2.6178 8.82428 2.52806 8.71579C2.51041 8.69406 2.48488 8.68017 2.45704 8.67716C2.4292 8.67415 2.4013 8.68226 2.3794 8.69972L1.70306 9.2274C1.65619 9.2649 1.64815 9.3332 1.68565 9.38008C2.66869 10.5868 4.16467 11.3569 5.84146 11.3569C8.80262 11.3569 11.2013 8.95419 11.1973 5.99169Z"
      fill="#abc4ff" />
  </g>
</svg>