<svg width="32" height="32" viewBox="0 0 32 32" fill="none" xmlns="http://www.w3.org/2000/svg">
  <path
    d="M16 4.375C9.58125 4.375 4.375 9.58125 4.375 16C4.375 22.4188 9.58125 27.625 16 27.625C22.4188 27.625 27.625 22.4188 27.625 16C27.625 9.58125 22.4188 4.375 16 4.375ZM17 22.75C17 22.8875 16.8875 23 16.75 23H15.25C15.1125 23 15 22.8875 15 22.75V14.25C15 14.1125 15.1125 14 15.25 14H16.75C16.8875 14 17 14.1125 17 14.25V22.75ZM16 12C15.6075 11.992 15.2337 11.8304 14.959 11.55C14.6842 11.2696 14.5303 10.8926 14.5303 10.5C14.5303 10.1074 14.6842 9.73043 14.959 9.45C15.2337 9.16957 15.6075 9.00801 16 9C16.3925 9.00801 16.7663 9.16957 17.041 9.45C17.3158 9.73043 17.4697 10.1074 17.4697 10.5C17.4697 10.8926 17.3158 11.2696 17.041 11.55C16.7663 11.8304 16.3925 11.992 16 12Z"
    fill="#ABC4FF" fill-opacity="0.1" />
  <path
    d="M16 2C8.26875 2 2 8.26875 2 16C2 23.7313 8.26875 30 16 30C23.7313 30 30 23.7313 30 16C30 8.26875 23.7313 2 16 2ZM16 27.625C9.58125 27.625 4.375 22.4188 4.375 16C4.375 9.58125 9.58125 4.375 16 4.375C22.4188 4.375 27.625 9.58125 27.625 16C27.625 22.4188 22.4188 27.625 16 27.625Z"
    fill="#ABC4FF" />
  <path
    d="M14.5 10.5C14.5 10.8978 14.658 11.2794 14.9393 11.5607C15.2206 11.842 15.6022 12 16 12C16.3978 12 16.7794 11.842 17.0607 11.5607C17.342 11.2794 17.5 10.8978 17.5 10.5C17.5 10.1022 17.342 9.72064 17.0607 9.43934C16.7794 9.15804 16.3978 9 16 9C15.6022 9 15.2206 9.15804 14.9393 9.43934C14.658 9.72064 14.5 10.1022 14.5 10.5ZM16.75 14H15.25C15.1125 14 15 14.1125 15 14.25V22.75C15 22.8875 15.1125 23 15.25 23H16.75C16.8875 23 17 22.8875 17 22.75V14.25C17 14.1125 16.8875 14 16.75 14Z"
    fill="#ABC4FF" />
</svg>