<svg width="16" height="16" viewBox="0 0 16 16" fill="none" xmlns="http://www.w3.org/2000/svg">
<path fill-rule="evenodd" clip-rule="evenodd" d="M7.33337 1.9987C7.33337 1.63051 7.63185 1.33203 8.00004 1.33203C11.6819 1.33203 14.6667 4.3168 14.6667 7.9987C14.6667 11.6806 11.6819 14.6654 8.00004 14.6654C4.31814 14.6654 1.33337 11.6806 1.33337 7.9987C1.33337 7.63051 1.63185 7.33203 2.00004 7.33203C2.36823 7.33203 2.66671 7.63051 2.66671 7.9987C2.66671 10.9442 5.05452 13.332 8.00004 13.332C10.9456 13.332 13.3334 10.9442 13.3334 7.9987C13.3334 5.05318 10.9456 2.66536 8.00004 2.66536C7.63185 2.66536 7.33337 2.36689 7.33337 1.9987Z" fill="#39D0D8"/>
<path fill-rule="evenodd" clip-rule="evenodd" d="M7.33337 5.33464C7.33337 4.96645 7.63185 4.66797 8.00004 4.66797C9.84099 4.66797 11.3334 6.16035 11.3334 8.0013C11.3334 9.84225 9.84099 11.3346 8.00004 11.3346C7.63185 11.3346 7.33337 11.0362 7.33337 10.668C7.33337 10.2998 7.63185 10.0013 8.00004 10.0013C9.10461 10.0013 10 9.10587 10 8.0013C10 6.89673 9.10461 6.0013 8.00004 6.0013C7.63185 6.0013 7.33337 5.70283 7.33337 5.33464Z" fill="#39D0D8"/>
</svg>
