<svg width="16" height="16" viewBox="0 0 16 16" fill="none" xmlns="http://www.w3.org/2000/svg">
  <path
    d="M13.7514 7.23815C13.4047 6.45789 12.9007 5.75757 12.271 5.18101L11.7514 4.70422C11.7337 4.68848 11.7125 4.6773 11.6895 4.67168C11.6666 4.66606 11.6426 4.66616 11.6196 4.67198C11.5967 4.6778 11.5756 4.68915 11.5581 4.70505C11.5406 4.72095 11.5272 4.7409 11.5192 4.76315L11.2871 5.42922C11.1424 5.84708 10.8764 6.27386 10.4996 6.69351C10.4746 6.72029 10.446 6.72743 10.4264 6.72922C10.4067 6.73101 10.3764 6.72743 10.3496 6.70243C10.3246 6.68101 10.3121 6.64886 10.3139 6.61672C10.3799 5.54172 10.0585 4.32922 9.35494 3.00958C8.7728 1.91315 7.96387 1.05779 6.95315 0.461363L6.21565 0.0274342C6.11923 -0.0297087 5.99601 0.0452913 6.00137 0.157791L6.04065 1.01493C6.06744 1.60065 5.99958 2.11851 5.83887 2.54886C5.64244 3.07565 5.3603 3.56493 4.99958 4.00422C4.74855 4.30951 4.46403 4.58565 4.15137 4.82743C3.39834 5.4063 2.78603 6.14803 2.3603 6.99708C1.93561 7.85353 1.71439 8.79647 1.71387 9.75243C1.71387 10.5953 1.87994 11.4114 2.20851 12.181C2.52577 12.922 2.98362 13.5945 3.55672 14.1614C4.1353 14.7328 4.80672 15.1828 5.55494 15.4953C6.32994 15.8203 7.15137 15.9846 7.99958 15.9846C8.8478 15.9846 9.66923 15.8203 10.4442 15.4971C11.1906 15.1864 11.8693 14.7333 12.4424 14.1631C13.021 13.5917 13.4746 12.9239 13.7907 12.1828C14.1187 11.4153 14.287 10.5889 14.2853 9.75422C14.2853 8.88279 14.1067 8.03636 13.7514 7.23815V7.23815ZM11.5889 13.2971C10.6299 14.2471 9.35673 14.7685 7.99958 14.7685C6.64244 14.7685 5.36922 14.2471 4.4103 13.2971C3.45494 12.3489 2.92815 11.0917 2.92815 9.75422C2.92815 8.97743 3.10315 8.23279 3.4478 7.53993C3.78351 6.86315 4.28351 6.25779 4.89065 5.79172C5.27786 5.49564 5.62907 5.15522 5.93708 4.77743C6.38351 4.23279 6.73351 3.62565 6.97637 2.97386C7.07599 2.705 7.14837 2.42682 7.19244 2.14351C7.6228 2.53993 7.98351 3.01851 8.2853 3.57922C8.88173 4.69708 9.15673 5.69172 9.10315 6.53815C9.09035 6.7375 9.12291 6.93716 9.19838 7.12211C9.27385 7.30707 9.39026 7.47251 9.53887 7.60601C9.66765 7.72234 9.81827 7.81192 9.98197 7.86955C10.1457 7.92719 10.3192 7.95172 10.4924 7.94172C10.8442 7.92386 11.1674 7.76851 11.4032 7.50601C11.6407 7.23993 11.846 6.96851 12.0174 6.69172C12.2674 7.01136 12.4764 7.35958 12.6424 7.73458C12.9264 8.37386 13.071 9.05422 13.071 9.75422C13.071 11.0917 12.5442 12.3506 11.5889 13.2971Z"
    fill="url(#paint0_linear_5824_3587)" />
  <defs>
    <linearGradient id="paint0_linear_5824_3587" x1="1.71387" y1="0.0078125" x2="17.2424" y2="12.2265"
      gradientUnits="userSpaceOnUse">
      <stop stop-color="#39D0D8" stop-opacity="0.8" />
      <stop offset="1" stop-color="#39D0D8" stop-opacity="0.6" />
    </linearGradient>
  </defs>
</svg>