<svg width="16" height="16" viewBox="0 0 16 16" fill="none" xmlns="http://www.w3.org/2000/svg">
<path d="M7.5 15.5C7.5 15.7761 7.72386 16 8 16C8.27614 16 8.5 15.7761 8.5 15.5H7.5ZM8.5 0.5C8.5 0.223858 8.27614 0 8 0C7.72386 0 7.5 0.223858 7.5 0.5H8.5ZM4.5 9.25C4.5 9.52614 4.72386 9.75 5 9.75C5.27614 9.75 5.5 9.52614 5.5 9.25H4.5ZM5.5 1.8011C5.5 1.52496 5.27614 1.3011 5 1.3011C4.72386 1.3011 4.5 1.52496 4.5 1.8011H5.5ZM10.5 9.25C10.5 9.52614 10.7239 9.75 11 9.75C11.2761 9.75 11.5 9.52614 11.5 9.25H10.5ZM11.5 1.80101C11.5 1.52487 11.2761 1.30101 11 1.30101C10.7239 1.30101 10.5 1.52487 10.5 1.80101H11.5ZM10.1213 12.1213L10.4749 12.4749L10.1213 12.1213ZM5.87868 12.1213L5.52513 12.4749H5.52513L5.87868 12.1213ZM8 9.66004L7.70086 10.0607L8 10.284L8.29914 10.0607L8 9.66004ZM10.95 3.44L10.7643 2.97576L10.7025 3.00048L10.6494 3.04049L10.95 3.44ZM8 5.66L7.69935 6.05951L8 6.28576L8.30065 6.05951L8 5.66ZM5.05 3.44L5.35065 3.04049L5.29748 3.00048L5.23569 2.97576L5.05 3.44ZM10.5 4V10H11.5V4H10.5ZM10.5 10C10.5 10.663 10.2366 11.2989 9.76777 11.7678L10.4749 12.4749C11.1313 11.8185 11.5 10.9283 11.5 10H10.5ZM9.76777 11.7678C9.29893 12.2366 8.66304 12.5 8 12.5V13.5C8.92826 13.5 9.8185 13.1313 10.4749 12.4749L9.76777 11.7678ZM8 12.5C7.33696 12.5 6.70107 12.2366 6.23223 11.7678L5.52513 12.4749C6.1815 13.1313 7.07174 13.5 8 13.5V12.5ZM6.23223 11.7678C5.76339 11.2989 5.5 10.663 5.5 10H4.5C4.5 10.9283 4.86875 11.8185 5.52513 12.4749L6.23223 11.7678ZM5.5 10V4H4.5V10H5.5ZM4.70086 7.82068L7.70086 10.0607L8.29914 9.2594L5.29914 7.0194L4.70086 7.82068ZM8.29914 10.0607L11.2991 7.82068L10.7009 7.0194L7.70086 9.2594L8.29914 10.0607ZM10.8143 2.95576L10.7643 2.97576L11.1357 3.90424L11.1857 3.88424L10.8143 2.95576ZM10.6494 3.04049L7.69935 5.26049L8.30065 6.05951L11.2507 3.83951L10.6494 3.04049ZM8.30065 5.26049L5.35065 3.04049L4.74935 3.83951L7.69935 6.05951L8.30065 5.26049ZM5.23569 2.97576L5.18569 2.95576L4.81431 3.88424L4.86431 3.90424L5.23569 2.97576ZM8.5 15.5V0.5H7.5V15.5H8.5ZM5.5 9.25V1.8011H4.5V9.25H5.5ZM11.5 9.25V1.80101H10.5V9.25H11.5Z" fill="#39D0D8"/>
</svg>
