<?xml version="1.0" standalone="no"?>
<!DOCTYPE svg PUBLIC "-//W3C//DTD SVG 1.1//EN" "http://www.w3.org/Graphics/SVG/1.1/DTD/svg11.dtd"><svg t="1646213224586"
  class="icon" viewBox="0 0 1024 1024" version="1.1" xmlns="http://www.w3.org/2000/svg" p-id="10040"
  xmlns:xlink="http://www.w3.org/1999/xlink" width="200" height="200">
  <defs>
    <style type="text/css"></style>
  </defs>
  <path d="M256 362.666667m32 0l234.666667 0q32 0 32 32l0 0q0 32-32 32l-234.666667 0q-32 0-32-32l0 0q0-32 32-32Z"
    p-id="10041" fill="#39D0D7"></path>
  <path d="M256 576m32 0l448 0q32 0 32 32l0 0q0 32-32 32l-448 0q-32 0-32-32l0 0q0-32 32-32Z" p-id="10042"
    fill="#39D0D7"></path>
  <path
    d="M929.205641 141.265193m-22.627417 22.627417l-196.104281 196.104281q-22.627417 22.627417-45.254834 0l0 0q-22.627417-22.627417 0-45.254834l196.104281-196.104281q22.627417-22.627417 45.254834 0l0 0q22.627417 22.627417 0 45.254834Z"
    p-id="10043" fill="#39D0D7"></path>
  <path
    d="M234.666667 170.666667a64 64 0 0 0-64 64v544h-0.021334l0.021334 10.858666a64 64 0 0 0 60.245333 63.893334l3.754667 0.106666V853.333333h554.666666l-0.021333 0.170667h0.213333L789.504 853.333333l3.584-0.106666A64 64 0 0 0 853.333333 789.504h0.192L853.504 789.333333 853.333333 789.333333V416a32 32 0 0 1 64 0V789.333333a128 128 0 0 1-128 128l-548.224 0.021334a128 128 0 0 1-133.973333-138.666667L106.666667 778.666667V256c0-2.432 0.277333-4.8 0.789333-7.082667A128 128 0 0 1 256 108.437333L256 106.666667h352a32 32 0 0 1 0 64H234.666667z"
    p-id="10044" fill="#39D0D7"></path>
</svg>