<svg width="20" height="20" viewBox="0 0 20 20" fill="none" xmlns="http://www.w3.org/2000/svg">
<path d="M10 1.25C5.16797 1.25 1.25 5.16797 1.25 10C1.25 14.832 5.16797 18.75 10 18.75C14.832 18.75 18.75 14.832 18.75 10C18.75 5.16797 14.832 1.25 10 1.25ZM10 17.2656C5.98828 17.2656 2.73438 14.0117 2.73438 10C2.73438 5.98828 5.98828 2.73438 10 2.73438C14.0117 2.73438 17.2656 5.98828 17.2656 10C17.2656 14.0117 14.0117 17.2656 10 17.2656Z" fill="#39D0D8"/>
<path d="M13.4123 12.4708L10.6271 10.4572V5.62317C10.6271 5.53723 10.5568 5.46692 10.4709 5.46692H9.5314C9.44547 5.46692 9.37515 5.53723 9.37515 5.62317V11.0021C9.37515 11.0529 9.39859 11.0997 9.43961 11.129L12.6701 13.4845C12.7404 13.5353 12.838 13.5197 12.8888 13.4513L13.4474 12.6896C13.4982 12.6173 13.4826 12.5197 13.4123 12.4708Z" fill="#39D0D8"/>
</svg>
