<svg width="20" height="20" viewBox="0 0 20 20" fill="none" xmlns="http://www.w3.org/2000/svg">
<g opacity="0.5">
<path d="M17.4976 11.7864H1.96409C1.86588 11.7864 1.78552 11.8668 1.78552 11.965V13.3043C1.78552 13.4025 1.86588 13.4828 1.96409 13.4828H15.473L12.252 17.5677C12.1605 17.6837 12.2431 17.8578 12.3927 17.8578H14.011C14.1203 17.8578 14.223 17.8087 14.2922 17.7217L18.0601 12.9427C18.4284 12.4739 18.0958 11.7864 17.4976 11.7864V11.7864ZM18.0355 6.51856H4.52659L7.74758 2.43373C7.83909 2.31766 7.7565 2.14355 7.60695 2.14355H5.98865C5.87927 2.14355 5.77659 2.19266 5.7074 2.27972L1.93954 7.05873C1.57124 7.52748 1.90383 8.21498 2.49981 8.21498H18.0355C18.1337 8.21498 18.2141 8.13463 18.2141 8.03641V6.69713C18.2141 6.59891 18.1337 6.51856 18.0355 6.51856Z" fill="#ABC4FF"/>
</g>
</svg>
