<?xml version="1.0" standalone="no"?>
<!DOCTYPE svg PUBLIC "-//W3C//DTD SVG 1.1//EN" "http://www.w3.org/Graphics/SVG/1.1/DTD/svg11.dtd"><svg t="1646211106806"
  class="icon" viewBox="0 0 1024 1024" version="1.1" xmlns="http://www.w3.org/2000/svg" p-id="6552"
  xmlns:xlink="http://www.w3.org/1999/xlink" width="200" height="200">
  <defs>
    <style type="text/css"></style>
  </defs>
  <path
    d="M274.1 576.1h476c42.8 0 64.2 51.8 34 82l-238 238a47.8 47.8 0 0 1-67.6 0.2l-0.2-0.2-238.2-238c-30.1-30.1-8.8-82 34-82z"
    opacity=".2" fill="#ABC4FF"></path>
  <path
    d="M240.1 366.1l238.2-238A47.8 47.8 0 0 1 546 128a1.88 1.88 0 0 1 0.2 0.2l238 238c30.2 30.2 8.8 82-34 82h-476c-42.9-0.1-64.2-51.9-34.1-82.1z"
    opacity=".2" fill="#ABC4FF"></path>
</svg>