<svg width="16" height="16" viewBox="0 0 16 16" fill="none" xmlns="http://www.w3.org/2000/svg">
<path d="M1.57227 7.46442V8.53585C1.57227 8.63109 1.61988 8.67871 1.71512 8.67871H7.32227V13.9997C7.32227 14.095 7.36988 14.1426 7.46512 14.1426H8.53655C8.63179 14.1426 8.67941 14.095 8.67941 13.9997V8.67871H14.2866C14.3818 8.67871 14.4294 8.63109 14.4294 8.53585V7.46442C14.4294 7.36919 14.3818 7.32157 14.2866 7.32157L8.67941 7.32157V1.99972C8.67941 1.90448 8.63179 1.85686 8.53655 1.85686H7.46512C7.36988 1.85686 7.32227 1.90448 7.32227 1.99972L7.32227 7.32157H1.71512C1.61988 7.32157 1.57227 7.36919 1.57227 7.46442Z" fill="#39D0D8"/>
</svg>
