<svg width="20" height="20" viewBox="0 0 20 20" fill="none" xmlns="http://www.w3.org/2000/svg">
<path d="M18.214 1.07422H1.78545C1.39036 1.07422 1.07117 1.39342 1.07117 1.7885V18.2171C1.07117 18.6122 1.39036 18.9314 1.78545 18.9314H18.214C18.6091 18.9314 18.9283 18.6122 18.9283 18.2171V1.7885C18.9283 1.39342 18.6091 1.07422 18.214 1.07422ZM17.3212 11.4314H10.3569V8.57422H17.3212V11.4314ZM17.3212 17.3242H2.67831V2.68136H17.3212V7.14565H9.6426C9.24751 7.14565 8.92831 7.46485 8.92831 7.85993V12.1456C8.92831 12.5407 9.24751 12.8599 9.6426 12.8599H17.3212V17.3242ZM11.5176 10.0028C11.5176 10.2396 11.6117 10.4667 11.7791 10.6341C11.9465 10.8016 12.1737 10.8956 12.4105 10.8956C12.6473 10.8956 12.8744 10.8016 13.0418 10.6341C13.2092 10.4667 13.3033 10.2396 13.3033 10.0028C13.3033 9.76599 13.2092 9.53889 13.0418 9.37145C12.8744 9.204 12.6473 9.10993 12.4105 9.10993C12.1737 9.10993 11.9465 9.204 11.7791 9.37145C11.6117 9.53889 11.5176 9.76599 11.5176 10.0028Z" fill="rgba(57,208,216,0.8)"/>
</svg>
