<svg width="12" height="12" viewBox="0 0 12 12" fill="none" xmlns="http://www.w3.org/2000/svg">
<g opacity="0.5">
<path d="M9.76308 2.38359H4.04433V1.39252C4.04433 1.30278 3.9412 1.25323 3.87156 1.30814L1.96978 2.80814C1.95697 2.81816 1.94661 2.83097 1.93949 2.84559C1.93237 2.86021 1.92867 2.87625 1.92867 2.89252C1.92867 2.90878 1.93237 2.92483 1.93949 2.93944C1.94661 2.95406 1.95697 2.96687 1.96978 2.97689L3.87156 4.47689C3.9412 4.5318 4.04433 4.48225 4.04433 4.39252V3.40144H9.60236V9.69609H1.48629C1.42736 9.69609 1.37915 9.7443 1.37915 9.80323V10.6068C1.37915 10.6657 1.42736 10.7139 1.48629 10.7139H9.76308C10.2358 10.7139 10.6202 10.3296 10.6202 9.8568V3.24073C10.6202 2.76796 10.2358 2.38359 9.76308 2.38359Z" fill="#ABC4FF"/>
</g>
</svg>
