<svg width="10" height="10" viewBox="0 0 10 10" fill="none" xmlns="http://www.w3.org/2000/svg">
<path d="M5 4.375C5.20711 4.375 5.375 4.54289 5.375 4.75V7.25C5.375 7.45711 5.20711 7.625 5 7.625C4.79289 7.625 4.625 7.45711 4.625 7.25V4.75C4.625 4.54289 4.79289 4.375 5 4.375Z" fill="#DA2EEF"/>
<path d="M5 3.5C5.27614 3.5 5.5 3.27614 5.5 3C5.5 2.72386 5.27614 2.5 5 2.5C4.72386 2.5 4.5 2.72386 4.5 3C4.5 3.27614 4.72386 3.5 5 3.5Z" fill="#DA2EEF"/>
<path fill-rule="evenodd" clip-rule="evenodd" d="M0.625 5C0.625 2.58375 2.58375 0.625 5 0.625C7.41624 0.625 9.375 2.58375 9.375 5C9.375 7.41624 7.41624 9.375 5 9.375C2.58375 9.375 0.625 7.41624 0.625 5ZM5 1.375C2.99797 1.375 1.375 2.99797 1.375 5C1.375 7.00203 2.99797 8.625 5 8.625C7.00203 8.625 8.625 7.00203 8.625 5C8.625 2.99797 7.00203 1.375 5 1.375Z" fill="#DA2EEF"/>
</svg>
