<svg width="28" height="8" viewBox="0 0 28 8" fill="none" xmlns="http://www.w3.org/2000/svg">
<path d="M24.6759 0.742674C24.6608 0.768716 24.6227 0.78274 24.5873 0.792355C24.2344 0.689158 23.8541 0.635299 23.4557 0.632095C21.6385 0.632095 19.9359 1.98549 18.1747 3.28601L17.9818 3.42864C17.8711 3.50877 17.7595 3.5889 17.6454 3.67184C16.9429 4.18267 16.1467 4.76201 15.4038 4.91906C15.3895 4.92244 15.3754 4.92405 15.3618 4.92387C15.2809 4.92387 15.2269 4.86698 15.247 4.80368C15.2586 4.77509 15.2792 4.74814 15.3055 4.72699C15.3318 4.70584 15.3624 4.69168 15.3925 4.68669C16.1672 4.52362 17.0278 3.73995 18.0226 2.83247C19.1806 1.77676 20.5328 0.455407 21.8596 0.192179C22.1865 0.125103 22.5092 0.0913807 22.8222 0.091615C23.5748 0.091615 24.2292 0.281524 24.668 0.625684C24.6793 0.64052 24.6859 0.658767 24.6873 0.67904C24.6886 0.699312 24.6847 0.721075 24.6759 0.742674ZM26.5633 3.26678C26.5223 2.6658 26.2179 2.1706 25.683 1.83084C25.1963 1.52154 24.5304 1.35006 23.8069 1.35006C23.3461 1.34562 22.8626 1.4217 22.3785 1.57483L22.373 1.57683H22.3673C21.2 1.89214 19.8341 2.7856 18.5139 3.6498C17.2822 4.45551 16.1192 5.21675 15.2472 5.40305C15.1864 5.41925 15.127 5.45339 15.0783 5.50005C15.0297 5.54672 14.9946 5.60325 14.9787 5.66067C14.9324 5.80651 15.0017 5.9251 15.1332 5.9251C15.1521 5.92516 15.1717 5.92259 15.1915 5.91749C16.085 5.70274 17.2487 5.02844 18.1839 4.48676C18.5186 4.29245 18.808 4.12618 19.0535 3.99636C20.2333 3.33769 21.9897 2.55402 23.6783 2.55402C24.586 2.54732 25.3952 2.79758 26.0103 3.27519C26.0148 3.27843 26.019 3.28204 26.0227 3.28601C26.1562 3.41382 26.3109 3.49635 26.4173 3.49635C26.4291 3.49635 26.4578 3.49635 26.4721 3.48313C26.478 3.48233 26.5246 3.43746 26.5646 3.26798L26.5633 3.26678ZM26.5633 3.26678C26.5223 2.6658 26.2179 2.1706 25.683 1.83084C25.1963 1.52154 24.5304 1.35006 23.8069 1.35006C23.3461 1.34562 22.8626 1.4217 22.3785 1.57483L22.373 1.57683H22.3673C21.2 1.89214 19.8341 2.7856 18.5139 3.6498C17.2822 4.45551 16.1192 5.21675 15.2472 5.40305C15.1864 5.41925 15.127 5.45339 15.0783 5.50005C15.0297 5.54672 14.9946 5.60325 14.9787 5.66067C14.9324 5.80651 15.0017 5.9251 15.1332 5.9251C15.1521 5.92516 15.1717 5.92259 15.1915 5.91749C16.085 5.70274 17.2487 5.02844 18.1839 4.48676C18.5186 4.29245 18.808 4.12618 19.0535 3.99636C20.2333 3.33769 21.9897 2.55402 23.6783 2.55402C24.586 2.54732 25.3952 2.79758 26.0103 3.27519C26.0148 3.27843 26.019 3.28204 26.0227 3.28601C26.1562 3.41382 26.3109 3.49635 26.4173 3.49635C26.4291 3.49635 26.4578 3.49635 26.4721 3.48313C26.478 3.48233 26.5246 3.43746 26.5646 3.26798L26.5633 3.26678ZM26.4552 4.58893C25.5954 3.95389 24.3989 3.54403 23.4103 3.54403H23.3905C23.3292 3.54202 23.266 3.54123 23.2028 3.54123C21.2286 3.54123 19.0913 4.5729 17.0248 5.57052L16.9355 5.61339C16.318 5.90988 15.6077 6.23601 14.9951 6.3558C14.9204 6.37287 14.8464 6.4129 14.7854 6.46924C14.7245 6.52558 14.6801 6.59484 14.6599 6.6655C14.6332 6.74747 14.6377 6.82685 14.6725 6.88867C14.6878 6.91678 14.7106 6.93947 14.7394 6.95522C14.7682 6.97097 14.8023 6.97942 14.8394 6.98001C14.8512 6.98001 14.8632 6.97921 14.8754 6.97761C15.7067 6.86703 16.617 6.50885 17.5813 6.12943C18.9567 5.58775 20.5159 4.97435 22.1669 4.97435C24.0715 4.97435 25.8032 5.79329 27.4616 7.47843C27.4759 7.49266 27.4956 7.5014 27.5184 7.50367C27.5637 7.50367 27.6516 7.41272 27.703 7.29012C27.9859 5.95274 27.0426 5.02484 26.4545 4.59093L26.4552 4.58893ZM26.4552 4.58893C25.5954 3.95389 24.3989 3.54403 23.4103 3.54403H23.3905C23.3292 3.54202 23.266 3.54123 23.2028 3.54123C21.2286 3.54123 19.0913 4.5729 17.0248 5.57052L16.9355 5.61339C16.318 5.90988 15.6077 6.23601 14.9951 6.3558C14.9204 6.37287 14.8464 6.4129 14.7854 6.46924C14.7245 6.52558 14.6801 6.59484 14.6599 6.6655C14.6332 6.74747 14.6377 6.82685 14.6725 6.88867C14.6878 6.91678 14.7106 6.93947 14.7394 6.95522C14.7682 6.97097 14.8023 6.97942 14.8394 6.98001C14.8512 6.98001 14.8632 6.97921 14.8754 6.97761C15.7067 6.86703 16.617 6.50885 17.5813 6.12943C18.9567 5.58775 20.5159 4.97435 22.1669 4.97435C24.0715 4.97435 25.8032 5.79329 27.4616 7.47843C27.4759 7.49266 27.4956 7.5014 27.5184 7.50367C27.5637 7.50367 27.6516 7.41272 27.703 7.29012C27.9859 5.95274 27.0426 5.02484 26.4545 4.59093L26.4552 4.58893ZM7.87929 0.742674C7.87792 0.768716 7.90706 0.78274 7.93639 0.792355C8.35467 0.689158 8.76909 0.635299 9.16952 0.632095C10.9868 0.632095 11.8317 1.98549 12.7687 3.28601L12.8712 3.42864C12.9312 3.50877 12.992 3.5889 13.0535 3.67184C13.4323 4.18267 13.8613 4.76201 14.5047 4.91906C14.5169 4.92244 14.53 4.92405 14.5437 4.92387C14.6246 4.92387 14.7146 4.86698 14.7347 4.80368C14.7412 4.77509 14.7377 4.74814 14.7248 4.72699C14.7119 4.70584 14.6903 4.69168 14.6633 4.68669C13.9919 4.52362 13.628 3.73995 13.2082 2.83247C12.7193 1.77676 12.2045 0.455407 11.0444 0.192179C10.7601 0.125103 10.4587 0.0913807 10.1456 0.091615C9.39298 0.091615 8.61821 0.281524 7.96128 0.625684C7.9406 0.64052 7.92247 0.658767 7.90826 0.67904C7.89405 0.699312 7.88415 0.721075 7.87929 0.742674ZM4.34352 3.48714C4.34901 3.49916 4.37979 3.50036 4.38991 3.50036C4.49633 3.50036 4.70335 3.41782 4.91784 3.29002C4.9241 3.28605 4.93052 3.28243 4.93705 3.2792C5.85482 2.80159 6.82268 2.55133 7.72612 2.55803C9.41671 2.55803 10.678 3.3421 11.4389 4.00037C11.6026 4.12858 11.7862 4.29645 11.9977 4.49077C12.5896 5.03245 13.3261 5.70675 14.0835 5.92149C14.1 5.9266 14.118 5.92916 14.1369 5.92911C14.2684 5.92911 14.4133 5.80891 14.459 5.66468C14.4795 5.60726 14.4803 5.55073 14.4612 5.50406C14.4421 5.45739 14.4043 5.42325 14.3537 5.40706C13.5998 5.22075 12.9193 4.45952 12.1982 3.65381C11.4248 2.7896 10.6251 1.89615 9.65836 1.58084H9.65269L9.64847 1.57883C9.26119 1.42562 8.82563 1.34953 8.36172 1.35407C7.63822 1.35407 6.86401 1.52434 6.18092 1.83485C5.4311 2.1746 4.81252 2.67101 4.39062 3.27079C4.32284 3.43746 4.34099 3.48233 4.34352 3.48714ZM4.34352 3.48714C4.34901 3.49916 4.37979 3.50036 4.38991 3.50036C4.49633 3.50036 4.70335 3.41782 4.91784 3.29002C4.9241 3.28605 4.93052 3.28243 4.93705 3.2792C5.85482 2.80159 6.82268 2.55133 7.72612 2.55803C9.41671 2.55803 10.678 3.3421 11.4389 4.00037C11.6026 4.12858 11.7862 4.29645 11.9977 4.49077C12.5896 5.03245 13.3261 5.70675 14.0835 5.92149C14.1 5.9266 14.118 5.92916 14.1369 5.92911C14.2684 5.92911 14.4133 5.80891 14.459 5.66468C14.4795 5.60726 14.4803 5.55073 14.4612 5.50406C14.4421 5.45739 14.4043 5.42325 14.3537 5.40706C13.5998 5.22075 12.9193 4.45952 12.1982 3.65381C11.4248 2.7896 10.6251 1.89615 9.65836 1.58084H9.65269L9.64847 1.57883C9.26119 1.42562 8.82563 1.34953 8.36172 1.35407C7.63822 1.35407 6.86401 1.52434 6.18092 1.83485C5.4311 2.1746 4.81252 2.67101 4.39062 3.27079C4.32284 3.43746 4.34099 3.48233 4.34352 3.48714ZM0.701966 7.29332C0.675663 7.41592 0.705923 7.50687 0.751243 7.50687C0.775497 7.50461 0.800696 7.49586 0.823983 7.48163C3.55027 5.79649 5.80099 4.97756 7.70563 4.97756C9.35656 4.97756 10.5271 5.59096 11.5592 6.13264C12.2831 6.51206 12.9663 6.87024 13.7276 6.98082C13.7388 6.98242 13.7503 6.98322 13.7621 6.98322C13.7996 6.98263 13.839 6.97417 13.8778 6.95842C13.9165 6.94267 13.9537 6.91999 13.9868 6.89187C14.0608 6.83005 14.1156 6.75068 14.1409 6.66871C14.1654 6.59804 14.165 6.52879 14.1397 6.47245C14.1144 6.41611 14.0658 6.37608 14.0019 6.35901C13.4654 6.23881 12.9617 5.91308 12.532 5.6166L12.4699 5.57373C11.0356 4.57611 9.5521 3.54443 7.57786 3.54443C7.51473 3.54443 7.4512 3.54443 7.38841 3.54723H7.36858C6.37923 3.54723 4.92376 3.9571 3.66158 4.59213C2.79896 5.02484 1.26755 5.95275 0.702474 7.29172L0.701966 7.29332ZM0.701966 7.29332C0.675663 7.41592 0.705923 7.50687 0.751243 7.50687C0.775497 7.50461 0.800696 7.49586 0.823983 7.48163C3.55027 5.79649 5.80099 4.97756 7.70563 4.97756C9.35656 4.97756 10.5271 5.59096 11.5592 6.13264C12.2831 6.51206 12.9663 6.87024 13.7276 6.98082C13.7388 6.98242 13.7503 6.98322 13.7621 6.98322C13.7996 6.98263 13.839 6.97417 13.8778 6.95842C13.9165 6.94267 13.9537 6.91999 13.9868 6.89187C14.0608 6.83005 14.1156 6.75068 14.1409 6.66871C14.1654 6.59804 14.165 6.52879 14.1397 6.47245C14.1144 6.41611 14.0658 6.37608 14.0019 6.35901C13.4654 6.23881 12.9617 5.91308 12.532 5.6166L12.4699 5.57373C11.0356 4.57611 9.5521 3.54443 7.57786 3.54443C7.51473 3.54443 7.4512 3.54443 7.38841 3.54723H7.36858C6.37923 3.54723 4.92376 3.9571 3.66158 4.59213C2.79896 5.02484 1.26755 5.95275 0.702474 7.29172L0.701966 7.29332Z" fill="url(#paint0_radial_12678_34)"/>
<defs>
<radialGradient id="paint0_radial_12678_34" cx="0" cy="0" r="1" gradientUnits="userSpaceOnUse" gradientTransform="translate(14.5231 6.13544) scale(12.1161 11.9967)">
<stop stop-color="#6B57EC"/>
<stop offset="1" stop-color="#A793FF"/>
</radialGradient>
</defs>
</svg>
