<svg width="93" height="20" viewBox="0 0 93 20" fill="none" xmlns="http://www.w3.org/2000/svg">
<path d="M1.94794 3.93775C2.25769 1.76299 4.29965 0 6.50879 0H89.3965C91.6057 0 93.1454 1.76299 92.8357 3.93776L91.1104 16.0514C90.8006 18.2261 88.7587 19.9891 86.5495 19.9891H3.66177C1.45263 19.9891 -0.0871331 18.2261 0.222615 16.0514L1.94794 3.93775Z" fill="url(#paint0_linear_12548_11197)"/>
<path d="M36.7878 9.39226C37.0132 8.68093 37.3114 8.08392 37.6825 7.60124C37.9579 7.24557 38.2804 6.92642 38.6499 6.6438C39.0227 6.36117 39.3983 6.15158 39.7769 6.01503C40.2812 5.83085 40.8247 5.73876 41.4074 5.73876C42.4621 5.73876 43.204 6.0579 43.6333 6.69619C44.0658 7.33449 44.102 8.22206 43.7418 9.35892C43.3845 10.4863 42.7907 11.3691 41.9602 12.0074C41.1307 12.6425 40.1902 12.96 39.1388 12.96C38.0743 12.96 37.3281 12.6441 36.9001 12.0121C36.4731 11.377 36.4357 10.5037 36.7878 9.39226ZM38.2922 9.34463C38.0416 10.1354 38.0386 10.7355 38.2832 11.1452C38.5287 11.5517 38.9396 11.7549 39.5158 11.7549C40.0919 11.7549 40.6278 11.5532 41.1235 11.1499C41.6234 10.7435 42.0016 10.1354 42.2582 9.32558C42.5117 8.52533 42.5202 7.92832 42.2837 7.53455C42.0504 7.14078 41.6359 6.94389 41.0402 6.94389C40.4445 6.94389 39.9009 7.14395 39.4096 7.54408C38.9192 7.94102 38.5467 8.54121 38.2922 9.34463ZM45.3253 7.78224H46.6046L46.3692 8.52533C46.6157 8.27128 46.9057 8.06487 47.2392 7.90609C47.5727 7.74731 47.912 7.66792 48.257 7.66792C48.8593 7.66792 49.2974 7.89815 49.5714 8.35861C49.8454 8.81907 49.8521 9.46054 49.5915 10.283C49.3239 11.1277 48.904 11.7851 48.3319 12.2551C47.7608 12.7219 47.1742 12.9553 46.5719 12.9553C46.2855 12.9553 46.0427 12.8997 45.8435 12.7886C45.6476 12.6774 45.4639 12.4869 45.2922 12.2169L44.4847 14.7654H43.1127L45.3253 7.78224ZM45.9085 10.2259C45.7284 10.7943 45.7106 11.215 45.8552 11.4881C46.0008 11.7581 46.2396 11.893 46.5716 11.893C46.8906 11.893 47.1952 11.7692 47.4852 11.5215C47.7763 11.2706 48.0119 10.861 48.192 10.2925C48.3601 9.76222 48.3758 9.36845 48.2392 9.11123C48.1026 8.854 47.8732 8.72539 47.5509 8.72539C47.2156 8.72539 46.897 8.85242 46.5952 9.10646C46.2943 9.35733 46.0654 9.73046 45.9085 10.2259ZM53.3878 11.2309L54.6841 11.4548C54.3534 11.9438 53.9568 12.317 53.4944 12.5742C53.0363 12.8282 52.5225 12.9553 51.9528 12.9553C51.0511 12.9553 50.4749 12.6679 50.224 12.0931C50.0281 11.6326 50.0414 11.0515 50.2638 10.3497C50.5294 9.51135 50.9618 8.85559 51.5609 8.38243C52.1611 7.90609 52.8046 7.66792 53.4914 7.66792C54.2629 7.66792 54.7926 7.91721 55.0806 8.41577C55.3696 8.91116 55.3419 9.67172 54.9973 10.6974H51.5598C51.4438 11.0944 51.4564 11.404 51.5975 11.6263C51.7397 11.8454 51.9687 11.955 52.2844 11.955C52.4993 11.955 52.698 11.8978 52.8807 11.7835C53.0634 11.6692 53.2325 11.485 53.3878 11.2309ZM53.8946 9.87813C54.0076 9.49071 53.9981 9.19697 53.8662 8.9969C53.7353 8.79367 53.5299 8.69205 53.2499 8.69205C52.9505 8.69205 52.6693 8.79843 52.4066 9.01119C52.1439 9.22396 51.9563 9.51294 51.8438 9.87813H53.8946ZM60.158 12.8409H58.7859L59.604 10.2592C59.777 9.713 59.8594 9.36051 59.8511 9.20173C59.8439 9.03977 59.7876 8.91434 59.6823 8.82542C59.5802 8.73651 59.4365 8.69205 59.2509 8.69205C59.0133 8.69205 58.7799 8.75556 58.5509 8.88258C58.3218 9.00961 58.1383 9.17791 58.0003 9.3875C57.8655 9.59709 57.7086 9.98451 57.5295 10.5498L56.8035 12.8409H55.4314L57.0343 7.78224H58.3087L58.0733 8.52533C58.7069 7.95373 59.3671 7.66792 60.0539 7.66792C60.3567 7.66792 60.6162 7.72191 60.8327 7.82988C61.0501 7.93467 61.1962 8.06963 61.2708 8.23476C61.3487 8.39989 61.3788 8.58725 61.3613 8.79684C61.3469 9.00643 61.2779 9.30652 61.1541 9.69712L60.158 12.8409ZM63.7818 5.85784H66.6431C67.2095 5.85784 67.6235 5.88166 67.8851 5.92929C68.151 5.97375 68.3698 6.06902 68.5416 6.21509C68.7167 6.36117 68.8387 6.55647 68.9077 6.80099C68.9777 7.04233 68.9649 7.31385 68.8694 7.61553C68.7657 7.94261 68.5795 8.2427 68.3107 8.5158C68.0451 8.7889 67.736 8.99373 67.3835 9.13028C67.7805 9.25413 68.0489 9.4653 68.1887 9.76381C68.3284 10.0623 68.3344 10.4132 68.2067 10.8165C68.106 11.1341 67.9314 11.4437 67.6829 11.7454C67.4385 12.0439 67.1559 12.2836 66.8348 12.4646C66.5181 12.6425 66.1611 12.752 65.7639 12.7933C65.515 12.8187 64.9289 12.8346 64.0056 12.8409H61.5691L63.7818 5.85784ZM64.8588 7.0201L64.3471 8.63489H65.2944C65.8576 8.63489 66.21 8.62695 66.3518 8.61107C66.6082 8.58249 66.8281 8.49993 67.0113 8.36338C67.1988 8.22365 67.3283 8.04105 67.3997 7.81559C67.4681 7.59965 67.4616 7.42499 67.3802 7.29162C67.303 7.15507 67.1485 7.0725 66.9167 7.04392C66.7785 7.02804 66.3692 7.0201 65.6889 7.0201H64.8588ZM63.9789 9.79715L63.3872 11.6644H64.7251C65.2459 11.6644 65.5809 11.6501 65.7299 11.6215C65.9568 11.5834 66.1602 11.4913 66.3399 11.3452C66.5239 11.196 66.6552 10.9975 66.7336 10.7498C66.8001 10.5402 66.8043 10.3624 66.7464 10.2163C66.6886 10.0703 66.5709 9.96387 66.3935 9.89718C66.2193 9.83049 65.8034 9.79715 65.1459 9.79715H63.9789ZM69.2877 10.2401C69.4286 9.79556 69.6772 9.36527 70.0337 8.94927C70.3901 8.53327 70.8081 8.21571 71.2877 7.9966C71.7705 7.77748 72.2658 7.66792 72.7737 7.66792C73.5582 7.66792 74.1221 7.91721 74.4654 8.41577C74.8097 8.91116 74.8617 9.53834 74.6212 10.2973C74.3787 11.0626 73.9235 11.6977 73.2557 12.2027C72.5922 12.7044 71.8763 12.9553 71.1081 12.9553C70.6328 12.9553 70.2119 12.8505 69.8454 12.6409C69.4821 12.4313 69.2521 12.1249 69.1552 11.7216C69.0594 11.3151 69.1036 10.8213 69.2877 10.2401ZM70.6713 10.3116C70.5124 10.8133 70.5127 11.1976 70.6723 11.4643C70.8319 11.7311 71.0908 11.8645 71.4488 11.8645C71.8069 11.8645 72.1486 11.7311 72.474 11.4643C72.8027 11.1976 73.0475 10.8102 73.2085 10.3021C73.3655 9.80668 73.3642 9.42561 73.2046 9.15886C73.0482 8.89211 72.791 8.75874 72.4329 8.75874C72.0748 8.75874 71.7315 8.89211 71.4028 9.15886C71.0741 9.42561 70.8303 9.80985 70.6713 10.3116ZM75.401 10.2401C75.5419 9.79556 75.7905 9.36527 76.1469 8.94927C76.5034 8.53327 76.9214 8.21571 77.401 7.9966C77.8838 7.77748 78.3791 7.66792 78.8869 7.66792C79.6714 7.66792 80.2354 7.91721 80.5787 8.41577C80.923 8.91116 80.9749 9.53834 80.7345 10.2973C80.492 11.0626 80.0368 11.6977 79.369 12.2027C78.7055 12.7044 77.9896 12.9553 77.2214 12.9553C76.7461 12.9553 76.3252 12.8505 75.9587 12.6409C75.5954 12.4313 75.3653 12.1249 75.2685 11.7216C75.1727 11.3151 75.2169 10.8213 75.401 10.2401ZM76.7846 10.3116C76.6256 10.8133 76.626 11.1976 76.7856 11.4643C76.9452 11.7311 77.204 11.8645 77.5621 11.8645C77.9202 11.8645 78.2619 11.7311 78.5873 11.4643C78.916 11.1976 79.1608 10.8102 79.3218 10.3021C79.4788 9.80668 79.4775 9.42561 79.3178 9.15886C79.1615 8.89211 78.9043 8.75874 78.5462 8.75874C78.1881 8.75874 77.8447 8.89211 77.5161 9.15886C77.1874 9.42561 76.9436 9.80985 76.7846 10.3116ZM80.9588 12.8409L83.1714 5.85784H84.5435L83.3692 9.56375L85.5402 7.78224H87.2296L84.8715 9.63043L85.7537 12.8409H84.2742L83.6904 10.5688L82.844 11.2214L82.3308 12.8409H80.9588Z" fill="white"/>
<path d="M28.7291 6.74267C28.714 6.76872 28.676 6.78274 28.6405 6.79236C28.2876 6.68916 27.9074 6.6353 27.509 6.63209C25.6917 6.63209 23.9891 7.98549 22.2279 9.28601L22.035 9.42864C21.9243 9.50877 21.8127 9.5889 21.6986 9.67184C20.9962 10.1827 20.2 10.762 19.457 10.9191C19.4428 10.9224 19.4286 10.9241 19.4151 10.9239C19.3341 10.9239 19.2801 10.867 19.3002 10.8037C19.3118 10.7751 19.3324 10.7481 19.3587 10.727C19.385 10.7058 19.4156 10.6917 19.4457 10.6867C20.2205 10.5236 21.081 9.73995 22.0758 8.83247C23.2338 7.77676 24.586 6.45541 25.9129 6.19218C26.2397 6.1251 26.5625 6.09138 26.8754 6.09161C27.628 6.09161 28.2824 6.28152 28.7213 6.62568C28.7325 6.64052 28.7391 6.65877 28.7405 6.67904C28.7418 6.69931 28.7379 6.72108 28.7291 6.74267V6.74267ZM30.6165 9.26678C30.5755 8.6658 30.2711 8.1706 29.7362 7.83084C29.2495 7.52154 28.5836 7.35006 27.8601 7.35006C27.3993 7.34562 26.9158 7.4217 26.4317 7.57483L26.4262 7.57683H26.4206C25.2532 7.89214 23.8873 8.7856 22.5671 9.6498C21.3354 10.4555 20.1724 11.2167 19.3005 11.4031C19.2396 11.4192 19.1802 11.4534 19.1315 11.5001C19.0829 11.5467 19.0478 11.6032 19.0319 11.6607C18.9857 11.8065 19.0549 11.9251 19.1864 11.9251C19.2053 11.9252 19.2249 11.9226 19.2447 11.9175C20.1382 11.7027 21.3019 11.0284 22.2371 10.4868C22.5718 10.2924 22.8612 10.1262 23.1067 9.99636C24.2866 9.33769 26.043 8.55402 27.7315 8.55402C28.6392 8.54732 29.4485 8.79758 30.0636 9.27519C30.0681 9.27843 30.0722 9.28204 30.0759 9.28601C30.2094 9.41382 30.3641 9.49635 30.4706 9.49635C30.4823 9.49635 30.511 9.49635 30.5253 9.48313C30.5313 9.48233 30.5778 9.43746 30.6178 9.26798L30.6165 9.26678ZM30.6165 9.26678C30.5755 8.6658 30.2711 8.1706 29.7362 7.83084C29.2495 7.52154 28.5836 7.35006 27.8601 7.35006C27.3993 7.34562 26.9158 7.4217 26.4317 7.57483L26.4262 7.57683H26.4206C25.2532 7.89214 23.8873 8.7856 22.5671 9.6498C21.3354 10.4555 20.1724 11.2167 19.3005 11.4031C19.2396 11.4192 19.1802 11.4534 19.1315 11.5001C19.0829 11.5467 19.0478 11.6032 19.0319 11.6607C18.9857 11.8065 19.0549 11.9251 19.1864 11.9251C19.2053 11.9252 19.2249 11.9226 19.2447 11.9175C20.1382 11.7027 21.3019 11.0284 22.2371 10.4868C22.5718 10.2924 22.8612 10.1262 23.1067 9.99636C24.2866 9.33769 26.043 8.55402 27.7315 8.55402C28.6392 8.54732 29.4485 8.79758 30.0636 9.27519C30.0681 9.27843 30.0722 9.28204 30.0759 9.28601C30.2094 9.41382 30.3641 9.49635 30.4706 9.49635C30.4823 9.49635 30.511 9.49635 30.5253 9.48313C30.5313 9.48233 30.5778 9.43746 30.6178 9.26798L30.6165 9.26678ZM30.5084 10.5889C29.6486 9.95389 28.4521 9.54403 27.4636 9.54403H27.4437C27.3824 9.54202 27.3192 9.54123 27.256 9.54123C25.2818 9.54123 23.1446 10.5729 21.078 11.5705L20.9887 11.6134C20.3712 11.9099 19.6609 12.236 19.0483 12.3558C18.9736 12.3729 18.8997 12.4129 18.8387 12.4692C18.7777 12.5256 18.7334 12.5948 18.7131 12.6655C18.6865 12.7475 18.691 12.8268 18.7257 12.8887C18.7411 12.9168 18.7639 12.9395 18.7926 12.9552C18.8214 12.971 18.8555 12.9794 18.8926 12.98C18.9044 12.98 18.9164 12.9792 18.9286 12.9776C19.76 12.867 20.6702 12.5088 21.6345 12.1294C23.0099 11.5878 24.5691 10.9744 26.2201 10.9744C28.1247 10.9744 29.8565 11.7933 31.5149 13.4784C31.5291 13.4927 31.5488 13.5014 31.5716 13.5037C31.6169 13.5037 31.7048 13.4127 31.7562 13.2901C32.0391 11.9527 31.0958 11.0248 30.5077 10.5909L30.5084 10.5889ZM30.5084 10.5889C29.6486 9.95389 28.4521 9.54403 27.4636 9.54403H27.4437C27.3824 9.54202 27.3192 9.54123 27.256 9.54123C25.2818 9.54123 23.1446 10.5729 21.078 11.5705L20.9887 11.6134C20.3712 11.9099 19.6609 12.236 19.0483 12.3558C18.9736 12.3729 18.8997 12.4129 18.8387 12.4692C18.7777 12.5256 18.7334 12.5948 18.7131 12.6655C18.6865 12.7475 18.691 12.8268 18.7257 12.8887C18.7411 12.9168 18.7639 12.9395 18.7926 12.9552C18.8214 12.971 18.8555 12.9794 18.8926 12.98C18.9044 12.98 18.9164 12.9792 18.9286 12.9776C19.76 12.867 20.6702 12.5088 21.6345 12.1294C23.0099 11.5878 24.5691 10.9744 26.2201 10.9744C28.1247 10.9744 29.8565 11.7933 31.5149 13.4784C31.5291 13.4927 31.5488 13.5014 31.5716 13.5037C31.6169 13.5037 31.7048 13.4127 31.7562 13.2901C32.0391 11.9527 31.0958 11.0248 30.5077 10.5909L30.5084 10.5889ZM11.9325 6.74267C11.9311 6.76872 11.9603 6.78274 11.9896 6.79236C12.4079 6.68916 12.8223 6.6353 13.2227 6.63209C15.04 6.63209 15.885 7.98549 16.8219 9.28601L16.9244 9.42864C16.9844 9.50877 17.0452 9.5889 17.1068 9.67184C17.4855 10.1827 17.9146 10.762 18.5579 10.9191C18.5701 10.9224 18.5832 10.9241 18.5969 10.9239C18.6778 10.9239 18.7679 10.867 18.7879 10.8037C18.7944 10.7751 18.7909 10.7481 18.778 10.727C18.7651 10.7058 18.7435 10.6917 18.7165 10.6867C18.0451 10.5236 17.6812 9.73995 17.2614 8.83247C16.7725 7.77676 16.2577 6.45541 15.0976 6.19218C14.8133 6.1251 14.5119 6.09138 14.1988 6.09161C13.4462 6.09161 12.6714 6.28152 12.0145 6.62568C11.9938 6.64052 11.9757 6.65877 11.9615 6.67904C11.9473 6.69931 11.9374 6.72108 11.9325 6.74267V6.74267ZM8.39674 9.48714C8.40224 9.49916 8.43301 9.50036 8.44313 9.50036C8.54955 9.50036 8.75657 9.41782 8.97107 9.29002C8.97732 9.28605 8.98374 9.28243 8.99028 9.2792C9.90805 8.80159 10.8759 8.55133 11.7793 8.55803C13.4699 8.55803 14.7312 9.3421 15.4921 10.0004C15.6559 10.1286 15.8394 10.2965 16.0509 10.4908C16.6429 11.0324 17.3793 11.7067 18.1367 11.9215C18.1533 11.9266 18.1713 11.9292 18.1902 11.9291C18.3217 11.9291 18.4666 11.8089 18.5123 11.6647C18.5327 11.6073 18.5335 11.5507 18.5144 11.5041C18.4953 11.4574 18.4575 11.4233 18.407 11.4071C17.6531 11.2208 16.9725 10.4595 16.2514 9.65381C15.478 8.7896 14.6783 7.89615 13.7116 7.58084H13.7059L13.7017 7.57883C13.3144 7.42562 12.8788 7.34953 12.4149 7.35407C11.6914 7.35407 10.9172 7.52434 10.2341 7.83485C9.48433 8.1746 8.86575 8.67101 8.44384 9.27079C8.37606 9.43746 8.39422 9.48233 8.39674 9.48714V9.48714ZM8.39674 9.48714C8.40224 9.49916 8.43301 9.50036 8.44313 9.50036C8.54955 9.50036 8.75657 9.41782 8.97107 9.29002C8.97732 9.28605 8.98374 9.28243 8.99028 9.2792C9.90805 8.80159 10.8759 8.55133 11.7793 8.55803C13.4699 8.55803 14.7312 9.3421 15.4921 10.0004C15.6559 10.1286 15.8394 10.2965 16.0509 10.4908C16.6429 11.0324 17.3793 11.7067 18.1367 11.9215C18.1533 11.9266 18.1713 11.9292 18.1902 11.9291C18.3217 11.9291 18.4666 11.8089 18.5123 11.6647C18.5327 11.6073 18.5335 11.5507 18.5144 11.5041C18.4953 11.4574 18.4575 11.4233 18.407 11.4071C17.6531 11.2208 16.9725 10.4595 16.2514 9.65381C15.478 8.7896 14.6783 7.89615 13.7116 7.58084H13.7059L13.7017 7.57883C13.3144 7.42562 12.8788 7.34953 12.4149 7.35407C11.6914 7.35407 10.9172 7.52434 10.2341 7.83485C9.48433 8.1746 8.86575 8.67101 8.44384 9.27079C8.37606 9.43746 8.39422 9.48233 8.39674 9.48714V9.48714ZM4.75519 13.2933C4.72889 13.4159 4.75915 13.5069 4.80447 13.5069C4.82872 13.5046 4.85392 13.4959 4.87721 13.4816C7.60349 11.7965 9.85421 10.9776 11.7589 10.9776C13.4098 10.9776 14.5803 11.591 15.6124 12.1326C16.3363 12.5121 17.0195 12.8702 17.7808 12.9808C17.792 12.9824 17.8035 12.9832 17.8153 12.9832C17.8528 12.9826 17.8922 12.9742 17.931 12.9584C17.9697 12.9427 18.0069 12.92 18.0401 12.8919C18.114 12.8301 18.1688 12.7507 18.1941 12.6687C18.2186 12.598 18.2182 12.5288 18.1929 12.4724C18.1676 12.4161 18.119 12.3761 18.0551 12.359C17.5186 12.2388 17.0149 11.9131 16.5852 11.6166L16.5231 11.5737C15.0888 10.5761 13.6053 9.54443 11.6311 9.54443C11.568 9.54443 11.5044 9.54443 11.4416 9.54723H11.4218C10.4325 9.54723 8.97699 9.9571 7.71481 10.5921C6.85218 11.0248 5.32078 11.9527 4.7557 13.2917L4.75519 13.2933ZM4.75519 13.2933C4.72889 13.4159 4.75915 13.5069 4.80447 13.5069C4.82872 13.5046 4.85392 13.4959 4.87721 13.4816C7.60349 11.7965 9.85421 10.9776 11.7589 10.9776C13.4098 10.9776 14.5803 11.591 15.6124 12.1326C16.3363 12.5121 17.0195 12.8702 17.7808 12.9808C17.792 12.9824 17.8035 12.9832 17.8153 12.9832C17.8528 12.9826 17.8922 12.9742 17.931 12.9584C17.9697 12.9427 18.0069 12.92 18.0401 12.8919C18.114 12.8301 18.1688 12.7507 18.1941 12.6687C18.2186 12.598 18.2182 12.5288 18.1929 12.4724C18.1676 12.4161 18.119 12.3761 18.0551 12.359C17.5186 12.2388 17.0149 11.9131 16.5852 11.6166L16.5231 11.5737C15.0888 10.5761 13.6053 9.54443 11.6311 9.54443C11.568 9.54443 11.5044 9.54443 11.4416 9.54723H11.4218C10.4325 9.54723 8.97699 9.9571 7.71481 10.5921C6.85218 11.0248 5.32078 11.9527 4.7557 13.2917L4.75519 13.2933Z" fill="url(#paint1_radial_12548_11197)"/>
<defs>
<linearGradient id="paint0_linear_12548_11197" x1="14.5227" y1="5.86966e-06" x2="48.6347" y2="53.9001" gradientUnits="userSpaceOnUse">
<stop stop-color="#1D51CB" stop-opacity="0.7"/>
<stop offset="1" stop-color="#2B6AFF" stop-opacity="0.1"/>
</linearGradient>
<radialGradient id="paint1_radial_12548_11197" cx="0" cy="0" r="1" gradientUnits="userSpaceOnUse" gradientTransform="translate(18.5763 12.1354) scale(12.1161 11.9967)">
<stop stop-color="#6B57EC"/>
<stop offset="1" stop-color="#A793FF"/>
</radialGradient>
</defs>
</svg>
