<svg width="109" height="112" viewBox="0 0 109 112" fill="none" xmlns="http://www.w3.org/2000/svg">
  <ellipse cx="39.5" cy="30" rx="22.5" ry="22" fill="#542CEE" />
  <ellipse cx="41.5" cy="27" rx="22.5" ry="22" fill="#2B6AFF" />
  <path fill-rule="evenodd" clip-rule="evenodd"
    d="M37.3091 19.8762C38.0801 18.3342 38.5311 17.9732 39.0251 17.9442C40.6461 17.8702 42.3051 17.7722 43.9581 17.7502C45.3811 17.7312 46.8091 17.8952 48.2401 17.9042C50.7021 17.9132 53.1681 17.8412 55.6351 17.7812C56.3641 17.7642 57.0931 17.7812 57.8221 17.7312C58.5191 17.6662 59.2161 17.5992 59.9141 17.5722C60.0321 17.5672 60.1541 17.4932 60.2661 17.5862C60.5661 17.8382 60.6471 18.7862 60.4341 19.5012C60.3861 19.6642 60.3331 19.9322 60.2791 19.9372C59.7371 19.9822 59.3161 21.2642 58.7411 21.2632C57.6801 21.1882 56.6211 21.5182 55.5581 21.6292C55.1331 21.6752 54.7061 21.6602 54.2821 21.6052C53.7381 21.5342 53.1961 21.3652 52.6531 21.2942C51.9101 21.1992 48.4181 21.1432 45.0591 21.0222C43.3791 20.9612 41.7321 20.8812 40.4721 20.7872C39.2181 20.7072 38.3321 20.5732 38.2471 20.5292C37.9821 20.4422 37.7121 20.1702 37.3091 19.8762Z"
    fill="white" />
  <path fill-rule="evenodd" clip-rule="evenodd"
    d="M40.7749 29.668C41.4069 28.104 41.7869 27.754 42.1269 27.723C43.2479 27.668 44.3709 27.585 45.5089 27.565C46.4879 27.543 47.4759 27.708 48.4719 27.71C50.1859 27.71 51.9109 27.629 53.6379 27.568C54.1489 27.549 54.6599 27.565 55.1699 27.518C55.6579 27.453 56.1469 27.386 56.6359 27.362C56.7179 27.357 56.8039 27.284 56.8819 27.377C57.0939 27.63 57.1539 28.578 57.0069 29.293C56.9739 29.455 56.9379 29.723 56.8999 29.728C56.5199 29.772 56.2299 31.052 55.8279 31.05C55.0849 30.974 54.3429 31.302 53.5999 31.416C53.3019 31.461 53.0039 31.447 52.7049 31.393C52.3239 31.323 51.9429 31.153 51.5619 31.085C51.0399 30.991 48.5929 30.952 46.2139 30.835C45.0249 30.777 43.8459 30.687 42.9429 30.574C42.0399 30.472 41.4219 30.334 41.3689 30.293C41.1839 30.202 41.0309 29.942 40.7749 29.668Z"
    fill="white" />
  <path fill-rule="evenodd" clip-rule="evenodd"
    d="M8.11652 15.0673C8.29952 14.4783 8.92552 14.1483 9.51452 14.3313C12.4355 15.2343 7.16552 18.1353 8.11652 15.0673Z"
    fill="white" stroke="#231F20" stroke-width="0.95" />
  <path fill-rule="evenodd" clip-rule="evenodd"
    d="M78.9573 23.934C79.1403 23.345 79.7663 23.015 80.3553 23.197C83.2763 24.101 78.0063 27.002 78.9573 23.934Z"
    fill="white" stroke="#231F20" stroke-width="0.95" />
  <path fill-rule="evenodd" clip-rule="evenodd"
    d="M90.9271 30.4008C91.1101 29.8118 91.7361 29.4818 92.3251 29.6638C95.2461 30.5678 89.9761 33.4688 90.9271 30.4008Z"
    fill="white" />
  <path fill-rule="evenodd" clip-rule="evenodd"
    d="M39.716 61.5208C40.002 60.9748 40.677 60.7628 41.224 61.0488C43.934 62.4658 38.227 64.3668 39.716 61.5208Z"
    fill="white" stroke="#231F20" stroke-width="0.95" />
  <path fill-rule="evenodd" clip-rule="evenodd"
    d="M15.7512 47.4277C16.0372 46.8807 16.7122 46.6697 17.2592 46.9557C19.9692 48.3727 14.2622 50.2737 15.7512 47.4277Z"
    fill="white" />
  <path fill-rule="evenodd" clip-rule="evenodd"
    d="M69.9465 67.0223L66.6055 61.8553C66.1975 61.2293 65.7395 60.6383 65.3465 60.0033C63.9605 57.7643 62.6105 55.5023 61.2015 53.2853C60.5775 52.3013 59.8895 51.3543 59.1965 50.4313C58.3625 49.2063 57.4115 48.0653 56.8215 46.6833C56.6255 46.2603 56.9025 46.0993 57.4625 46.1583C57.7445 46.1863 58.1015 46.2683 58.4805 46.4093C58.8755 46.5413 59.2505 46.7613 59.5355 47.0913C60.0515 47.6683 60.5545 48.2493 61.0455 48.8383C61.5195 49.4383 61.9285 50.0843 62.3555 50.7163C63.1955 51.9903 63.9905 53.2953 64.7365 54.6413C65.6275 56.2513 66.8105 57.7483 67.8495 59.3033L71.2295 64.4673C71.9265 65.5223 72.6245 66.5793 73.3435 67.6173C74.4335 69.1893 75.5155 70.7803 76.7045 72.2523C77.6305 73.3943 78.6715 74.4093 79.7005 75.3793C79.9295 75.5873 80.1435 75.7933 80.3505 76.0193C80.5435 76.2073 80.6915 76.3913 80.7975 76.5433C80.9025 76.6853 80.9885 76.8013 81.0295 76.9473C81.0705 77.1913 81.0985 77.4643 81.1035 77.6703C81.1145 77.7823 81.1745 77.8993 81.2105 77.9973C81.4815 78.2963 80.3525 78.6423 79.4405 78.1243C78.0845 77.4243 77.1155 76.4203 76.1655 75.3903C75.2195 74.3563 74.3505 73.2563 73.5045 72.1403C72.2495 70.4813 71.0765 68.7643 69.8975 67.0613L69.9465 67.0223Z"
    fill="white" />
  <path fill-rule="evenodd" clip-rule="evenodd"
    d="M81.5111 72.4243C81.8691 73.4133 82.2101 74.4123 82.4281 75.5243C82.5381 76.0743 82.6131 76.6753 82.5381 77.3953C82.4991 77.5933 82.4751 77.7753 82.4041 77.9823C82.3091 78.1993 82.1941 78.4463 82.0651 78.6153C81.8151 78.9183 81.5021 79.2413 81.0511 79.4183C80.6211 79.6053 80.1371 79.6413 79.7561 79.5773C79.3531 79.5273 79.0381 79.3943 78.7391 79.2603C78.1541 78.9823 77.7001 78.6313 77.2671 78.2823C76.4091 77.5773 75.6921 76.8053 75.0051 76.0183C74.0101 74.8663 73.0651 73.6963 72.1991 72.4863C69.0981 68.3203 66.2661 63.8713 63.5191 59.4673C62.2931 57.5103 61.0231 55.5693 59.7451 53.6743C58.1281 51.2213 56.4721 48.7963 55.0501 46.2103C54.6211 45.3923 54.8111 45.4033 55.4991 45.8643C56.2071 46.3093 57.4031 47.2243 58.4831 48.5523C60.3721 50.9223 62.0321 53.4433 63.6151 56.0033C65.1881 58.5573 66.7661 61.1173 68.3541 63.6953C70.2221 66.7723 72.5441 69.7463 74.6881 72.7393C75.8861 74.3303 77.1461 75.9403 78.6141 77.1103C79.3441 77.6893 80.2061 78.0083 80.4581 77.6833C80.8631 77.5003 80.7561 76.4623 80.5321 75.5563C79.9171 73.2523 78.8231 70.9743 77.7161 68.7613C76.0051 65.4023 74.1351 62.0843 72.1921 58.8663C70.6781 56.3643 69.0101 54.0243 67.4151 51.6123C67.0591 51.0843 66.7091 50.5663 66.3501 50.0343C65.0441 48.0443 64.8561 47.2643 65.0241 46.5503C65.0661 46.3853 65.0861 46.1903 65.1521 46.0683C65.3651 45.6603 66.1981 46.2813 67.3191 47.6413C70.5021 51.7633 73.4271 56.4033 76.1731 61.1953C78.1451 64.7983 80.0341 68.4623 81.5541 72.4013L81.5111 72.4243Z"
    fill="white" />
  <path fill-rule="evenodd" clip-rule="evenodd"
    d="M54.3012 45.2125C57.4702 44.4885 60.4932 43.0555 62.9872 40.9375C65.5212 38.8625 67.5012 36.1295 68.8612 33.1395C69.8402 30.9405 70.4212 28.5765 70.6942 26.1855C70.8902 24.0695 70.8312 21.9345 70.5042 19.8295C70.1122 17.7375 69.4482 15.7035 68.5192 13.7855C67.5332 11.8965 66.2702 10.1655 64.7892 8.62548C63.2452 7.15348 61.5132 5.86548 59.6012 4.87248C57.9112 3.97748 56.0762 3.36348 54.2192 2.89548C52.3482 2.46148 50.4332 2.27448 48.5342 2.23848C43.6362 2.25648 38.8142 3.74648 34.7632 6.38548C33.5082 7.20648 33.2842 6.69048 34.0612 5.46248C34.7982 4.21548 36.8022 2.36948 39.7402 1.36948C44.9152 -0.374522 50.5692 -0.429522 55.7802 1.07148C60.9642 2.56448 65.8552 5.74948 68.8202 10.3825C70.6232 13.1005 71.8932 16.2225 72.4952 19.4855C73.0842 22.7495 73.0182 26.1435 72.2852 29.3595C71.4792 32.8945 69.9082 36.2565 67.6682 39.1095C66.5232 40.5105 65.2562 41.8165 63.8372 42.9455C62.4052 44.0555 60.8552 45.0085 59.2152 45.7715C55.1602 47.6305 50.5902 48.2175 46.2192 47.6275C39.5862 46.7615 33.3292 43.0775 29.5432 37.5995C26.5892 33.3615 25.1042 28.2425 25.2602 23.1025C25.2912 21.9695 25.3872 20.8585 25.5922 19.7305C25.9742 17.6385 26.4972 16.3205 26.9352 15.4435C27.3872 14.5695 27.7932 14.1365 28.2432 13.8625C28.4492 13.7385 28.6822 13.5605 28.8492 13.5165C29.4442 13.3925 28.8752 14.9555 28.1462 17.7145C27.0872 21.8145 27.1102 26.2895 28.3842 30.4415C29.6152 34.5955 32.1872 38.3555 35.6722 41.0345C40.8392 45.0105 47.8792 46.6475 54.2812 45.1635L54.3012 45.2125Z"
    fill="white" />
  <path fill-rule="evenodd" clip-rule="evenodd"
    d="M84.503 61.8109C83.963 60.6969 83.349 59.6199 82.597 58.7039C82.317 58.3759 81.99 58.1029 81.687 57.8339C81.146 57.3449 80.604 56.9319 80.001 56.7969C79.397 56.6339 78.711 56.6859 78.029 56.9399C77.42 57.1549 76.863 57.5839 76.375 58.0589C75.74 58.6749 75.27 59.4469 74.566 60.0189C74.361 60.1839 73.878 59.8649 73.568 59.3249C73.258 58.7909 73.133 58.0339 73.535 57.5609C74.235 56.7279 75.068 55.9709 76.089 55.3869C77.096 54.8109 78.38 54.4169 79.676 54.6129C80.445 54.7029 81.174 54.9699 81.845 55.2959C82.165 55.4669 82.448 55.6669 82.748 55.8549C83.021 56.0649 83.275 56.2899 83.529 56.5149C84.581 57.5499 85.346 58.7359 86.015 59.9389C86.428 60.6799 86.784 61.4429 87.131 62.2039C87.646 63.3619 88.063 64.5569 88.507 65.7239C88.847 66.6339 89.277 67.4989 89.61 68.4219C89.689 68.6229 89.769 68.8229 89.829 69.0329C90.049 69.8109 89.92 70.1149 89.367 70.3709C89.239 70.4309 89.114 70.5009 88.982 70.5429C88.538 70.6829 88.106 70.4389 87.88 69.9429C87.161 68.4629 86.61 66.8709 85.989 65.2859C85.523 64.1129 85.039 62.9409 84.455 61.8389L84.503 61.8109Z"
    fill="white" />
  <path fill-rule="evenodd" clip-rule="evenodd"
    d="M94.0524 66.2718C93.6574 65.2888 93.2104 64.3258 92.6764 63.4288C92.4754 63.1068 92.2254 62.8188 92.0104 62.5168C91.2794 61.4288 90.4004 60.4198 89.3164 59.9108C88.8354 59.6988 88.3094 59.6578 87.8254 59.7508C87.1894 59.8888 86.6894 60.2858 85.9894 60.5218C85.7684 60.5818 85.4124 60.1278 85.2624 59.5458C85.1084 58.9708 85.1944 58.2158 85.7614 57.9388C86.7194 57.4418 87.9614 57.2318 89.0754 57.4868C90.1954 57.7298 91.1044 58.3368 91.7784 59.0338C92.5874 59.8628 93.4014 60.6308 94.0274 61.5308C94.7054 62.5178 95.2504 63.5588 95.7354 64.6138C96.0384 65.2608 96.2934 65.9258 96.5574 66.5828C96.9484 67.5828 97.2574 68.6118 97.6024 69.6168C97.8674 70.4008 98.2264 71.1468 98.4834 71.9608C98.5434 72.1388 98.6114 72.3158 98.6514 72.5048C98.7924 73.2078 98.6354 73.4928 98.0444 73.6498C97.9094 73.6868 97.7754 73.7298 97.6394 73.7488C97.1724 73.7968 96.8024 73.5758 96.6204 73.1778C96.0734 71.9748 95.6384 70.6278 95.1594 69.2798C94.8034 68.2788 94.4434 67.2678 94.0024 66.2968L94.0524 66.2718Z"
    fill="white" />
  <path fill-rule="evenodd" clip-rule="evenodd"
    d="M105.675 87.643C105.537 85.594 105.335 83.548 105.022 81.524C104.899 80.788 104.722 80.061 104.577 79.333C104.09 76.766 103.488 74.18 102.35 71.905C101.846 70.911 101.161 69.984 100.34 69.444C99.8119 69.093 99.2499 68.975 98.7089 68.959C98.4289 69.016 98.1539 68.99 97.8619 69.103C97.7169 69.148 97.5669 69.158 97.4159 69.215C97.2669 69.276 97.1129 69.333 96.9539 69.384C96.5669 69.503 96.2519 69.02 96.3459 68.33C96.4039 67.996 96.5299 67.559 96.8639 67.225C97.1999 66.893 97.6749 66.563 98.3209 66.532C99.4189 66.418 100.63 66.751 101.46 67.353C101.933 67.62 102.239 67.98 102.613 68.308C102.908 68.662 103.231 69.016 103.47 69.388C104.466 70.873 105.04 72.442 105.462 74.019C105.95 75.904 106.546 77.796 106.908 79.711C107.301 81.814 107.562 83.928 107.758 86.042C107.872 87.343 107.965 88.645 108.034 89.946C108.148 91.917 108.168 93.899 108.219 95.857C108.263 97.38 108.383 98.878 108.397 100.402C108.396 100.738 108.428 101.067 108.405 101.407C108.343 102.664 108.121 103.056 107.502 103.241C107.36 103.284 107.217 103.345 107.077 103.36C106.603 103.411 106.29 102.872 106.246 101.994C106.09 99.375 106.056 96.625 105.965 93.848C105.892 91.788 105.804 89.713 105.62 87.651L105.675 87.643Z"
    fill="white" />
  <path fill-rule="evenodd" clip-rule="evenodd"
    d="M77.0521 92.6939C74.6371 90.1459 72.3891 87.4429 70.4181 84.5259C69.6961 83.4649 68.9851 82.3859 68.3791 81.2409C67.3331 79.2179 66.4071 77.0649 66.2051 74.6179C66.1081 73.4239 66.3011 71.9929 67.2511 70.9069C67.7021 70.4049 68.3811 69.9489 69.1521 69.8699C69.9161 69.7829 70.5961 70.0109 71.1571 70.2849C72.1661 70.7849 72.9451 71.4649 73.7071 72.1359C74.4551 72.8209 75.1641 73.5189 75.8311 74.2369C76.6931 75.1529 77.5461 76.0649 78.4021 76.9339C78.8321 77.3639 79.2601 77.7859 79.6901 78.1679C80.1151 78.5369 80.5811 78.8849 80.9501 78.9879C81.0611 79.0169 81.1351 79.0499 81.1941 79.0829C81.2571 79.1259 81.3121 79.1869 81.3361 79.2609C81.3861 79.3829 81.3121 79.6979 80.8841 79.8749C80.4691 80.0559 79.7971 80.0359 79.1571 79.8169C78.5151 79.5969 77.8471 79.2379 77.2911 78.7179C75.3281 76.9029 73.6821 74.9659 71.9601 73.3239C71.1261 72.5429 70.1081 71.8329 69.5081 71.8109C69.2341 71.7789 69.0031 71.8609 68.6771 72.1709C68.4031 72.4499 68.2041 72.8519 68.0931 73.3419C67.8231 74.5419 68.1881 76.0559 68.7261 77.4289C69.2711 78.8259 70.0101 80.1809 70.8011 81.4909C72.5501 84.3739 74.6801 87.0659 77.0241 89.5469C78.4651 91.0769 79.9821 92.5409 81.5731 93.9199C83.9811 96.0469 86.4991 97.9199 89.2391 99.7119C91.3711 101.222 93.1181 103.45 93.8441 106.021C94.0161 106.578 94.1641 107.127 94.2611 107.696C94.4431 108.751 94.4131 109.439 94.3451 109.915C94.3051 110.156 94.2451 110.34 94.1591 110.502C94.0541 110.666 93.9311 110.796 93.8051 110.918C93.6891 111.029 93.5901 111.173 93.4951 111.244C93.2311 111.5 92.5281 110.671 92.2541 109.248C91.7941 107.151 91.1571 105.241 89.9911 103.687C89.4121 102.909 88.7031 102.224 87.9001 101.618L87.2811 101.178L86.5431 100.683C86.0461 100.356 85.5571 100.015 85.0741 99.6649C82.1881 97.6089 79.5001 95.2649 77.0171 92.7359L77.0521 92.6939Z"
    fill="white" />
  <path fill-rule="evenodd" clip-rule="evenodd"
    d="M28.5357 41.2621C30.8157 44.0501 33.8187 46.3011 37.2067 47.7001C37.8137 47.9832 38.4657 48.1502 39.0947 48.3751C39.7407 48.5451 40.3847 48.7271 41.0347 48.8801C45.6177 49.9692 50.5737 49.6931 55.0037 47.8991C56.9657 47.1071 58.8257 46.0071 60.4327 44.6481C62.5307 42.9261 64.2287 40.8041 65.9327 38.6861C66.4767 38.0361 66.8847 38.4131 66.9007 39.3221C66.9087 39.7771 66.8167 40.3681 66.5977 41.0231C66.3577 41.6621 65.9537 42.3411 65.4237 43.0001C61.5437 47.5771 55.8427 50.7091 49.8397 51.3231C46.2717 51.6981 42.4937 51.5621 38.9767 50.5182C35.1297 49.3741 31.5407 47.3371 28.6847 44.5231C26.9207 42.8031 25.4367 40.7971 24.3187 38.6091C23.4747 36.9521 22.8187 35.1871 22.4507 33.3661C22.3357 32.9151 22.2477 32.4611 22.1947 31.9991C22.1337 31.5401 22.0547 31.0851 22.0067 30.6231C21.9237 29.6971 21.8967 28.7681 21.9367 27.8441C22.0587 24.9771 22.6737 22.1631 23.8847 19.5541C24.1567 18.9831 24.4127 18.4151 24.7527 17.8721C26.0097 15.8531 26.7127 15.4221 27.4427 15.4241C27.6137 15.4271 27.8067 15.4051 27.9437 15.4461C28.4197 15.6031 28.0307 16.4771 27.2047 17.8091C24.7867 21.7761 23.4427 26.6891 24.2417 31.4491C24.7387 35.0191 26.2817 38.4161 28.5727 41.2251L28.5357 41.2621Z"
    fill="white" />
  <circle cx="106.5" cy="41.5" r="2.5" fill="#2B6AFF" />
  <circle cx="2" cy="37" r="2" fill="#2B6AFF" />
  <g opacity="0.8">
    <g filter="url(#filter0_f_14476_26263)">
      <path
        d="M8 72.2661C18.0635 71.2713 19.6631 67.8048 20.2662 59.9999C21.9595 69.8876 24.8261 72.2711 32.5325 72.2661C23.812 73.5162 21.389 76.4244 20.2662 84.5324C19.9113 76.5648 17.2371 73.871 8 72.2661Z"
        fill="#8C6EEF" />
    </g>
    <path
      d="M8 72.2661C18.0635 71.2713 19.6631 67.8048 20.2662 59.9999C21.9595 69.8876 24.8261 72.2711 32.5325 72.2661C23.812 73.5162 21.389 76.4244 20.2662 84.5324C19.9113 76.5648 17.2371 73.871 8 72.2661Z"
      fill="#542CEE" />
  </g>
  <defs>
    <filter id="filter0_f_14476_26263" x="4.31471" y="56.3147" width="31.9033" height="31.9028"
      filterUnits="userSpaceOnUse" color-interpolation-filters="sRGB">
      <feFlood flood-opacity="0" result="BackgroundImageFix" />
      <feBlend mode="normal" in="SourceGraphic" in2="BackgroundImageFix" result="shape" />
      <feGaussianBlur stdDeviation="1.84265" result="effect1_foregroundBlur_14476_26263" />
    </filter>
  </defs>
</svg>