<svg width="119" height="119" viewBox="0 0 119 119" fill="none" xmlns="http://www.w3.org/2000/svg">
  <path fill-rule="evenodd" clip-rule="evenodd"
    d="M77 42C77 61.33 61.33 77 42 77C22.67 77 7 61.33 7 42C7 22.67 22.67 7 42 7C61.33 7 77 22.67 77 42ZM63.5783 78.0404C57.2718 81.8244 49.89 84 42 84C18.804 84 0 65.196 0 42C0 18.804 18.804 0 42 0C65.196 0 84 18.804 84 42C84 49.7581 81.8965 57.025 78.2287 63.2613L86.1459 70.9965L115.62 99.7927C119.945 104.019 119.986 110.964 115.71 115.24C111.451 119.499 104.54 119.479 100.307 115.196L71.5109 86.0652L63.5783 78.0404ZM69.3251 73.8968L73.9633 78.5889L78.7725 73.579L74.1335 69.0466C72.6643 70.7903 71.0558 72.4127 69.3251 73.8968ZM78.886 83.5689L83.7797 78.471L110.728 104.8C112.265 106.302 112.28 108.771 110.76 110.29C109.246 111.804 106.79 111.797 105.285 110.275L78.886 83.5689Z"
    fill="url(#paint0_linear_14687_15529)" />
  <path
    d="M37.9075 50.039C37.5859 50.039 37.3252 49.7783 37.3252 49.4567C37.3365 47.4586 37.513 45.8658 37.8545 44.6784C38.2074 43.491 38.7196 42.5319 39.3912 41.8011C40.0629 41.0704 40.8711 40.4082 41.8159 39.8145C42.5217 39.3578 43.1534 38.8839 43.7112 38.393C44.269 37.902 44.7129 37.3597 45.0431 36.7659C45.3732 36.1608 45.5382 35.4872 45.5382 34.745C45.5382 33.9572 45.3504 33.2664 44.9748 32.6727C44.5991 32.079 44.0926 31.6223 43.4551 31.3026C42.829 30.9829 42.1346 30.823 41.3719 30.823C40.632 30.823 39.9319 30.9886 39.2717 31.3197C38.6115 31.6394 38.0708 32.1189 37.6496 32.7583C36.88 33.9058 35.8725 35.1047 34.4909 35.1047H33.5902C31.622 35.1047 29.9487 33.4395 30.5792 31.5751C30.8431 30.7947 31.1965 30.0873 31.6392 29.4529C32.6751 27.9572 34.0468 26.844 35.7543 26.1132C37.4618 25.3711 39.3457 25 41.4061 25C43.6714 25 45.6748 25.3768 47.4165 26.1304C49.1581 26.8725 50.5241 27.9515 51.5145 29.3673C52.5048 30.7831 53 32.49 53 34.4881C53 35.824 52.778 37.0114 52.3341 38.0504C51.9015 39.078 51.2925 39.9914 50.5071 40.7907C49.7216 41.5785 48.7939 42.2921 47.7238 42.9315C46.8245 43.4681 46.0846 44.0276 45.5041 44.6099C44.9349 45.1922 44.508 45.8658 44.2235 46.6308C43.9503 47.3958 43.808 48.3378 43.7966 49.4567C43.7966 49.7783 43.5359 50.039 43.2143 50.039H37.9075ZM40.706 61C39.5677 61 38.5944 60.6004 37.7862 59.8011C36.9894 58.9905 36.5966 58.02 36.608 56.8896C36.5966 55.7707 36.9894 54.8116 37.7862 54.0124C38.5944 53.2131 39.5677 52.8135 40.706 52.8135C41.7874 52.8135 42.7379 53.2131 43.5575 54.0124C44.3771 54.8116 44.7926 55.7707 44.804 56.8896C44.7926 57.6432 44.5934 58.334 44.2064 58.9619C43.8307 59.5785 43.3356 60.0752 42.7209 60.452C42.1062 60.8173 41.4345 61 40.706 61Z"
    fill="url(#paint1_linear_14687_15529)" />
  <defs>
    <linearGradient id="paint0_linear_14687_15529" x1="88" y1="15" x2="8.63686" y2="81.2687"
      gradientUnits="userSpaceOnUse">
      <stop stop-color="#C200FB" />
      <stop offset="0.489658" stop-color="#3772FF" />
      <stop offset="1" stop-color="#5AC4BE" />
    </linearGradient>
    <linearGradient id="paint1_linear_14687_15529" x1="55.8206" y1="31.015" x2="29.6805" y2="39.3418"
      gradientUnits="userSpaceOnUse">
      <stop stop-color="#C200FB" />
      <stop offset="0.489658" stop-color="#3772FF" />
      <stop offset="1" stop-color="#5AC4BE" />
    </linearGradient>
  </defs>
</svg>