<svg xmlns="http://www.w3.org/2000/svg" width="200" height="200" class="icon" viewBox="0 0 1024 1024">
  <path class="icon-face" d="M512 0a512 512 0 100 1024A512 512 0 00512 0zm0 937a425 425 0 110-850 425 425 0 010 850zm54-452l-29-6V325c44 6 71 33 75 67 1 4 5 8 9 8h52a9 9 0 009-10c-7-72-66-117-144-125v-38a9 9 0 00-9-9h-32a9 9 0 00-9 9v38c-81 8-145 53-145 136 0 77 57 115 117 129l28 7v163c-50-7-79-34-84-70a9 9 0 00-9-7h-53a9 9 0 00-9 10c5 62 52 120 154 128v36c0 5 4 9 9 9h33a9 9 0 009-10v-36c89-8 153-56 153-142 0-79-50-114-125-133zm-78-18a168 168 0 01-17-6c-39-14-57-36-57-65 0-42 32-65 74-71v142zm49 234V548l11 2c54 17 72 40 72 75 0 44-34 71-83 76z" fill="#cccccc"/>
</svg>
