<svg t="1635330544635" class="icon" viewBox="0 0 1024 1024" version="1.1" xmlns="http://www.w3.org/2000/svg" p-id="4229" width="200" height="200">
  <path fill="#ABC4FF" d="m518.15261,298.70959c-43.36124,0 -77.34707,12.30521 -101.9575,37.50161c-24.61043,24.61043 -36.91565,58.01031 -36.91565,100.78558l61.52608,0c0,-25.78236 5.27366,-45.70509 15.82099,-59.76819c11.71925,-16.99292 31.05602,-25.1964 57.42434,-25.1964c21.09466,0 38.08757,5.85963 49.80683,17.57888c11.13329,11.71925 16.99292,27.54024 16.99292,48.04893c0,15.23503 -5.85963,29.29813 -16.40695,42.77527l-9.96137,11.13329c-36.32968,32.22794 -58.59626,56.25241 -66.21378,72.65937c-8.20348,15.23503 -11.71925,33.98584 -11.71925,55.66646l0,9.96136l62.698,0l0,-9.96136c0,-14.0631 2.92981,-26.95428 9.3754,-38.67353c5.27366,-10.54733 13.47714,-21.09466 24.61043,-30.47006c27.54025,-24.02447 43.9472,-39.2595 49.22086,-45.70509c14.64907,-18.7508 22.26658,-42.77527 22.26658,-71.48744c0,-35.15776 -11.71926,-63.28397 -35.15776,-83.79266c-23.4385,-21.09466 -53.90856,-31.05602 -91.41017,-31.05602l0,0zm-10.54733,342.78815c-11.71925,0 -22.26658,3.51578 -30.47006,11.71925c-8.20348,7.61752 -12.30522,17.57888 -12.30522,29.8841c0,11.71925 4.10174,21.68062 12.30522,29.8841c8.20347,8.20347 18.7508,12.30521 30.47006,12.30521c11.71926,0 22.26658,-4.10174 30.47006,-11.71926c8.20347,-8.20347 12.89118,-18.16484 12.89118,-30.47006c0,-12.30521 -4.10174,-22.26658 -12.30521,-29.8841c-8.20348,-8.20347 -18.7508,-11.71925 -31.05602,-11.71925l0,0z"/>
</svg>