<svg width="40" height="40" viewBox="0 0 40 40" fill="none" xmlns="http://www.w3.org/2000/svg">
<path d="M34.3297 15.8661V28.7492L20 37.021L5.66234 28.7492V12.1978L20 3.91808L31.013 10.2797L32.6753 9.32068L20 2L4 11.2388V29.7083L20 38.947L36 29.7083V14.9071L34.3297 15.8661Z" fill="url(#a)"/>
<path d="M15.988 28.7572H13.5904V20.7173H21.5824C22.3385 20.7089 23.061 20.4031 23.5934 19.8662C24.1259 19.3293 24.4255 18.6043 24.4276 17.8481C24.4319 17.4742 24.3597 17.1034 24.2154 16.7584C24.0711 16.4134 23.8577 16.1016 23.5884 15.8421C23.3278 15.5743 23.0158 15.362 22.6711 15.2178C22.3264 15.0736 21.9561 15.0005 21.5824 15.003H13.5904V12.5574H21.5904C22.991 12.5658 24.3319 13.1259 25.3222 14.1163C26.3126 15.1067 26.8727 16.4475 26.8811 17.8481C26.8897 18.9202 26.5627 19.9681 25.9461 20.8451C25.3785 21.6842 24.5786 22.3397 23.6444 22.7313C22.7193 23.0246 21.7537 23.1703 20.7832 23.1628H15.988V28.7572Z" fill="url(#b)"/>
<path d="M26.8252 28.5574H24.028L21.8701 24.7932C22.7238 24.741 23.5659 24.5688 24.3716 24.2817L26.8252 28.5574Z" fill="url(#c)"/>
<path d="M32.6593 13.1888L34.3137 14.1079L35.968 13.1888V11.2467L34.3137 10.2877L32.6593 11.2467V13.1888Z" fill="url(#d)"/>
<defs>
<linearGradient id="a" x1="35.9717" y1="11.2489" x2="2.04291" y2="24.817" gradientUnits="userSpaceOnUse">
<stop stop-color="#C200FB"/>
<stop offset="0.489658" stop-color="#3772FF"/>
<stop offset="1" stop-color="#5AC4BE"/>
</linearGradient>
<linearGradient id="b" x1="35.9717" y1="11.2489" x2="2.04291" y2="24.817" gradientUnits="userSpaceOnUse">
<stop stop-color="#C200FB"/>
<stop offset="0.489658" stop-color="#3772FF"/>
<stop offset="1" stop-color="#5AC4BE"/>
</linearGradient>
<linearGradient id="c" x1="35.9717" y1="11.2489" x2="2.04291" y2="24.817" gradientUnits="userSpaceOnUse">
<stop stop-color="#C200FB"/>
<stop offset="0.489658" stop-color="#3772FF"/>
<stop offset="1" stop-color="#5AC4BE"/>
</linearGradient>
<linearGradient id="d" x1="35.9717" y1="11.2489" x2="2.04291" y2="24.817" gradientUnits="userSpaceOnUse">
<stop stop-color="#C200FB"/>
<stop offset="0.489658" stop-color="#3772FF"/>
<stop offset="1" stop-color="#5AC4BE"/>
</linearGradient>
</defs>
</svg>
