<svg width="131" height="40" viewBox="0 0 131 40" fill="none" xmlns="http://www.w3.org/2000/svg">
<g clip-path="url(#clip0)">
<path d="M18.1661 32.7634C12.12 32.7634 7.21777 27.8612 7.21777 21.815C7.21777 15.9323 17.104 5.55589 17.5125 5.14737L18.0027 4.57544L18.493 5.14737C18.9015 5.55589 29.0328 15.9323 29.0328 21.815C29.1145 27.8612 24.2123 32.7634 18.1661 32.7634ZM18.0844 6.69975C17.1857 7.6802 15.3882 9.6411 13.5907 12.0922C10.4042 16.3409 8.68845 19.6907 8.68845 21.815C8.68845 27.0441 12.9371 31.2927 18.1661 31.2927C23.3952 31.2927 27.6438 27.0441 27.6438 21.815C27.6438 19.6907 25.928 16.3409 22.6599 12.0922C20.8624 9.72281 18.9832 7.6802 18.0844 6.69975Z" fill="url(#paint0_linear)"/>
<path d="M18.1658 36.2764C10.1587 36.2764 3.7041 29.8218 3.7041 21.8148C3.7041 14.0529 14.5708 3.18622 15.061 2.696C15.3878 2.45088 15.7963 2.45088 16.1231 2.696C16.3683 3.02281 16.3683 3.43134 16.1231 3.75815C15.9597 3.83986 5.17478 14.6248 5.17478 21.8148C5.17478 29.0048 10.9758 34.8058 18.1658 34.8058C25.3557 34.8058 31.1567 29.0048 31.1567 21.8148C31.1567 18.8734 29.2775 14.7882 25.6825 10.0494C22.9046 6.37269 20.1267 3.59474 20.1267 3.59474C19.7998 3.34963 19.7998 2.85941 20.1267 2.53259C20.3718 2.20577 20.862 2.20577 21.1888 2.53259C21.679 3.02281 32.7091 14.0529 32.7091 21.8148C32.6274 29.8218 26.1728 36.2764 18.1658 36.2764Z" fill="url(#paint1_linear)"/>
<path d="M18.166 39.7892C8.52492 39.7892 0.599609 31.8638 0.599609 22.2227C0.599609 18.2192 2.64222 13.317 6.56402 7.59768C9.50537 3.43076 12.365 0.407707 12.5284 0.244299C12.7735 -0.0825184 13.2638 -0.0825184 13.5906 0.244299C13.9174 0.489411 13.9174 0.979637 13.5906 1.30645C13.5906 1.30645 10.6492 4.32951 7.78958 8.49643C4.03119 13.8889 2.07029 18.6278 2.07029 22.3044C2.07029 31.2102 9.34196 38.4002 18.166 38.4002C26.9901 38.4002 34.2618 31.0468 34.2618 22.2227C34.2618 18.5461 32.3009 13.8072 28.5425 8.41472C25.6828 4.32951 22.7415 1.30645 22.7415 1.22475C22.4963 0.897933 22.4963 0.489411 22.7415 0.162594C23.0683 -0.0825184 23.4768 -0.0825184 23.8036 0.162594C24.2121 0.734524 35.7324 12.6633 35.7324 22.2227C35.7324 31.8638 27.8888 39.7892 18.166 39.7892Z" fill="url(#paint2_linear)"/>
<path d="M43.3311 25.7368L46.8443 25.4099C47.0894 26.5538 47.498 27.4525 48.1516 28.0245C48.8052 28.5964 49.704 28.8415 50.7661 28.8415C51.91 28.8415 52.8087 28.5964 53.3807 28.1062C53.9526 27.616 54.2794 27.044 54.2794 26.3904C54.2794 25.9819 54.116 25.5733 53.8709 25.3282C53.6258 25.0014 53.2173 24.7563 52.5636 24.5929C52.1551 24.4295 51.1747 24.1844 49.704 23.7759C47.7431 23.2856 46.4358 22.7137 45.6188 21.9784C44.5566 20.9979 43.9847 19.7723 43.9847 18.3834C43.9847 17.4846 44.2298 16.5859 44.72 15.8505C45.2103 15.1152 45.9456 14.4616 46.926 14.053C47.9065 13.6445 49.0504 13.3994 50.4393 13.3994C52.727 13.3994 54.3611 13.8896 55.505 14.8701C56.6488 15.8505 57.2208 17.1578 57.3025 18.7919L53.7075 18.9553C53.5441 18.0566 53.2173 17.4029 52.727 16.9944C52.2368 16.5859 51.5015 16.3408 50.4393 16.3408C49.3772 16.3408 48.5601 16.5859 47.9882 16.9944C47.5797 17.2395 47.4163 17.648 47.4163 18.1383C47.4163 18.5468 47.5797 18.9553 47.9882 19.2004C48.4784 19.6089 49.5406 20.0175 51.3381 20.426C53.1356 20.8345 54.3611 21.243 55.2599 21.7332C56.0769 22.1418 56.7306 22.7954 57.2208 23.5307C57.711 24.2661 57.9561 25.2465 57.9561 26.3904C57.9561 27.4525 57.711 28.3513 57.1391 29.25C56.5671 30.1488 55.7501 30.8024 54.6879 31.2109C53.6258 31.6195 52.3185 31.8646 50.7661 31.8646C48.4784 31.8646 46.7626 31.3743 45.5371 30.3122C44.3115 29.25 43.5762 27.7794 43.3311 25.7368Z" fill="white"/>
<path d="M60.8975 31.6192V13.6443H74.1335V16.6673H64.4924V20.6709H73.4799V23.6939H64.4924V28.5962H74.4604V31.6192H60.8975Z" fill="white"/>
<path d="M77.6465 31.6192V13.6443H85.245C87.1242 13.6443 88.5131 13.8077 89.4119 14.1345C90.3106 14.4613 90.9643 15.0333 91.4545 15.8503C91.9447 16.6673 92.2715 17.6478 92.2715 18.7099C92.2715 20.0172 91.863 21.1611 91.046 22.0598C90.2289 22.9586 89.0851 23.4488 87.5327 23.6939C88.3497 24.1841 88.9217 24.6744 89.4936 25.1646C89.9838 25.7365 90.7192 26.717 91.5362 28.1059L93.7422 31.6192H89.4119L86.7974 27.6974C85.8986 26.3084 85.245 25.4097 84.9182 25.0829C84.5913 24.7561 84.1828 24.511 83.856 24.3475C83.4475 24.1841 82.8756 24.1841 82.0585 24.1841H81.3232V31.6192H77.6465ZM81.2415 21.2428H83.9377C85.6535 21.2428 86.7157 21.1611 87.2059 20.9977C87.6144 20.8343 87.9412 20.5891 88.1863 20.2623C88.4314 19.9355 88.5131 19.4453 88.5131 18.9551C88.5131 18.3831 88.3497 17.8929 88.0229 17.4844C87.6961 17.0759 87.2876 16.9125 86.634 16.749C86.3071 16.749 85.4901 16.6673 84.0194 16.6673H81.1598L81.2415 21.2428Z" fill="white"/>
<path d="M95.6221 13.6443H99.2171V23.3671C99.2171 24.9195 99.2988 25.8999 99.3805 26.3901C99.5439 27.1255 99.8707 27.6974 100.524 28.1876C101.096 28.5962 101.913 28.8413 102.894 28.8413C103.956 28.8413 104.691 28.5962 105.181 28.1876C105.672 27.7791 105.999 27.2889 106.162 26.6353C106.244 26.0633 106.325 25.0012 106.325 23.6122V13.6443H109.92V23.0403C109.92 25.1646 109.839 26.717 109.593 27.6157C109.43 28.5145 109.022 29.2498 108.531 29.9034C108.041 30.4754 107.306 30.9656 106.407 31.3741C105.508 31.7826 104.364 31.946 102.975 31.946C101.26 31.946 99.9524 31.7826 99.0536 31.3741C98.1549 30.9656 97.5013 30.4754 96.9293 29.8217C96.4391 29.1681 96.1123 28.5145 95.9489 27.8608C95.7038 26.7987 95.6221 25.328 95.6221 23.2854V13.6443Z" fill="white"/>
<path d="M113.679 31.6192V13.6443H119.071L122.339 25.8182L125.526 13.6443H130.918V31.5375H127.568V17.4844L124.055 31.6192H120.542L117.029 17.4844V31.6192H113.679Z" fill="white"/>
</g>
<defs>
<linearGradient id="paint0_linear" x1="18.1258" y1="32.7634" x2="18.1258" y2="4.606" gradientUnits="userSpaceOnUse">
<stop stop-color="#05AAC5"/>
<stop offset="1" stop-color="#71E0EC"/>
</linearGradient>
<linearGradient id="paint1_linear" x1="18.2066" y1="36.2764" x2="18.2066" y2="2.3454" gradientUnits="userSpaceOnUse">
<stop stop-color="#05AAC5"/>
<stop offset="1" stop-color="#71E0EC"/>
</linearGradient>
<linearGradient id="paint2_linear" x1="18.166" y1="39.7892" x2="18.166" y2="0.0189585" gradientUnits="userSpaceOnUse">
<stop stop-color="#05AAC5"/>
<stop offset="1" stop-color="#71E0EC"/>
</linearGradient>
<clipPath id="clip0">
<rect width="130.4" height="39.79" fill="white" transform="translate(0.599609)"/>
</clipPath>
</defs>
</svg>
