<svg width="172" height="33" viewBox="0 0 172 33" fill="none" xmlns="http://www.w3.org/2000/svg">
<path d="M58.2682 17.7422H64.7473C65.6573 17.7422 66.3952 18.4855 66.3952 19.4024C66.3952 20.3194 65.6573 21.0628 64.7473 21.0628H56.9324C56.8104 21.0628 56.6924 21.1067 56.5997 21.1866L54.2401 23.2205C53.8789 23.5318 54.0975 24.1279 54.5728 24.1279H64.356C64.3599 24.1279 64.3631 24.1246 64.3631 24.1206C64.3631 24.1162 64.367 24.1128 64.371 24.1132C64.4943 24.1229 64.6185 24.1279 64.7442 24.1279C67.3397 24.1279 69.4433 22.0122 69.4433 19.4024C69.4433 16.9242 67.5464 14.8915 65.1324 14.693C65.1285 14.6927 65.1253 14.6892 65.1253 14.685C65.1253 14.6806 65.1222 14.677 65.1175 14.677H58.1373C57.2272 14.677 56.4894 13.9337 56.4894 13.0168C56.4894 12.0998 57.2272 11.3565 58.1373 11.3565H65.9418C66.0699 11.3565 66.194 11.3078 66.2883 11.2201L68.4791 9.18617C68.8225 8.868 68.5986 8.29138 68.1326 8.29138H58.2682C58.2677 8.29138 58.2674 8.29177 58.2674 8.29225C58.2674 8.29272 58.267 8.29303 58.2665 8.29303C58.2246 8.29193 58.1825 8.29138 58.1403 8.29138C55.5452 8.29138 53.4414 10.407 53.4414 13.0168C53.4414 15.6266 55.5452 17.7422 58.1403 17.7422C58.1825 17.7422 58.2246 17.7417 58.2665 17.7406C58.267 17.7406 58.2674 17.7409 58.2674 17.7413C58.2674 17.7418 58.2677 17.7422 58.2682 17.7422Z" fill="white"/>
<path d="M96.0073 8.29138C95.7236 8.29138 95.4941 8.52225 95.4941 8.80703V23.6123C95.4941 23.8971 95.7236 24.1279 96.0073 24.1279H107.871C108.013 24.1279 108.149 24.0689 108.245 23.965L109.73 22.3725C110.038 22.0432 109.805 21.5042 109.356 21.5042H98.9972C98.7143 21.5042 98.4849 21.2734 98.4849 20.9886V8.80703C98.4849 8.52225 98.2547 8.29138 97.9718 8.29138H96.0073Z" fill="white"/>
<path fill-rule="evenodd" clip-rule="evenodd" d="M77.0045 8.29138C77.0037 8.29138 77.003 8.29201 77.003 8.2928C77.003 8.2935 77.0022 8.29413 77.0014 8.29413C75.4848 8.35983 74.2676 9.58009 74.2016 11.0998C74.2016 11.1005 74.2008 11.1011 74.2008 11.1011C74.2 11.1011 74.2 11.1012 74.1992 11.1016C74.1992 11.1018 74.1992 11.1021 74.1992 11.1025V21.0614C74.1992 21.0621 74.2 21.0628 74.2 21.0628C74.2008 21.0628 74.2016 21.0634 74.2016 21.0642C74.2 21.1061 74.1992 21.1482 74.1992 21.1905C74.1992 22.7695 75.4424 24.0575 77.0014 24.1251C77.0022 24.1251 77.003 24.1257 77.003 24.1265V24.1272V24.1275C77.0037 24.1278 77.0037 24.1279 77.0045 24.1279H87.7692C87.77 24.1279 87.7708 24.1272 87.7708 24.1265L87.7716 24.1257V24.1253L87.7724 24.1251C89.3314 24.0575 90.5745 22.7695 90.5745 21.1905C90.5745 21.1482 90.5737 21.1061 90.5722 21.0642C90.5722 21.0634 90.5729 21.0628 90.5737 21.0628C90.5737 21.0628 90.5745 21.0621 90.5745 21.0614V11.1025C90.5745 11.1017 90.5737 11.1011 90.5729 11.1011C90.5722 11.1011 90.5722 11.1005 90.5722 11.0998C90.5062 9.58009 89.289 8.35983 87.7724 8.29413C87.7716 8.29413 87.7708 8.2935 87.7708 8.2928C87.7708 8.29201 87.77 8.29138 87.7692 8.29138H77.0045ZM79.0107 11.1011L79.0099 11.1014V11.102C79.0099 11.1024 79.0099 11.1028 79.0091 11.1028C78.0614 11.1442 77.3 11.9117 77.2591 12.8677C77.2591 12.8681 77.2591 12.8685 77.2583 12.8685C77.2583 12.8685 77.2576 12.8689 77.2576 12.8694V19.1339C77.2576 19.1343 77.2583 19.1347 77.2583 19.1347C77.2591 19.1347 77.2591 19.1351 77.2591 19.1356C77.2583 19.1619 77.2576 19.1884 77.2576 19.215C77.2576 20.2083 78.0347 21.0185 79.0091 21.061C79.0099 21.061 79.0099 21.0614 79.0099 21.0619V21.0624L79.0107 21.0626V21.0628H85.7631V21.0627L85.7638 21.0623V21.0619C85.7638 21.0614 85.7639 21.061 85.7646 21.061C86.739 21.0185 87.5162 20.2083 87.5162 19.215C87.5162 19.1884 87.5154 19.1619 87.5146 19.1356V19.1354V19.1351L87.5154 19.1347C87.5154 19.1347 87.5162 19.1343 87.5162 19.1339V12.8694C87.5162 12.8689 87.5154 12.8685 87.5154 12.8685C87.5146 12.8685 87.5146 12.8681 87.5146 12.8677C87.4738 11.9117 86.7123 11.1442 85.7646 11.1028C85.7639 11.1028 85.7638 11.1024 85.7638 11.102V11.1016L85.7631 11.1012V11.1011H79.0107Z" fill="white"/>
<path fill-rule="evenodd" clip-rule="evenodd" d="M126.982 23.6123C126.982 23.8971 127.21 24.1279 127.491 24.1279H129.503C129.784 24.1279 130.011 23.8971 130.011 23.6123V11.3578C130.011 11.3571 130.011 11.3565 130.01 11.3565V11.3563L130.009 11.3562C130.009 11.3559 130.009 11.3555 130.009 11.3551C130.011 11.3133 130.011 11.2711 130.011 11.2288C130.011 9.64972 128.78 8.36171 127.236 8.29413C127.235 8.29413 127.234 8.2935 127.234 8.2928C127.234 8.29201 127.234 8.29138 127.233 8.29138H116.898C116.897 8.29138 116.896 8.29201 116.896 8.29272C116.896 8.2935 116.896 8.29405 116.895 8.29405C116.854 8.29225 116.812 8.29138 116.771 8.29138C115.167 8.29138 113.867 9.6065 113.867 11.2288C113.867 11.2711 113.868 11.3133 113.87 11.3551C113.87 11.3558 113.87 11.3565 113.869 11.3565C113.868 11.3565 113.867 11.3571 113.867 11.3578V23.6123C113.867 23.8971 114.095 24.1279 114.376 24.1279H116.388C116.669 24.1279 116.896 23.8971 116.896 23.6123V18.5132C116.896 18.2285 117.124 17.9976 117.406 17.9976H126.473C126.754 17.9976 126.982 18.2285 126.982 18.5132V23.6123ZM116.896 15.1832V12.6336C116.896 11.6462 117.688 10.8456 118.664 10.8456H125.215C126.191 10.8456 126.982 11.6462 126.982 12.6336V15.1832C126.982 15.4679 126.754 15.6988 126.473 15.6988H117.406C117.124 15.6988 116.896 15.4679 116.896 15.1832Z" fill="white"/>
<path fill-rule="evenodd" clip-rule="evenodd" d="M169.455 24.1279C169.171 24.1279 168.941 23.8971 168.941 23.6123V18.5132C168.941 18.2285 168.711 17.9976 168.427 17.9976H159.259C158.975 17.9976 158.746 18.2285 158.746 18.5132V23.6123C158.746 23.8971 158.515 24.1279 158.232 24.1279H156.2C155.917 24.1279 155.687 23.8971 155.687 23.6123V11.3578V11.3575L155.687 11.357C155.687 11.3567 155.688 11.3565 155.688 11.3565C155.689 11.3565 155.69 11.3558 155.69 11.3551C155.688 11.3133 155.687 11.2711 155.687 11.2288C155.687 9.6065 156.999 8.29138 158.618 8.29138C158.66 8.29138 158.702 8.29225 158.744 8.29405C158.745 8.29405 158.746 8.2935 158.746 8.29272C158.746 8.29201 158.746 8.29138 158.746 8.29138H169.194C169.195 8.29138 169.196 8.29201 169.196 8.2928C169.196 8.2935 169.196 8.29413 169.197 8.29413C170.756 8.36171 172 9.64972 172 11.2288C172 11.2711 171.998 11.3133 171.997 11.3551C171.997 11.3558 171.997 11.3565 171.998 11.3565C171.998 11.3565 171.999 11.3566 171.999 11.3569C171.999 11.3572 172 11.3575 172 11.3578V23.6123C172 23.8971 171.769 24.1279 171.486 24.1279H169.455ZM158.746 12.6336V15.1832C158.746 15.4679 158.975 15.6988 159.259 15.6988H168.427C168.711 15.6988 168.941 15.4679 168.941 15.1832V12.6336C168.941 11.6462 168.142 10.8456 167.157 10.8456H160.529C159.544 10.8456 158.746 11.6462 158.746 12.6336Z" fill="white"/>
<path d="M137.584 8.29138C137.733 8.29138 137.875 8.35755 137.971 8.47243L146.996 19.2299C147.302 19.5947 147.891 19.3747 147.891 18.8954V8.80703C147.891 8.52225 148.118 8.29138 148.4 8.29138H150.412C150.693 8.29138 150.921 8.52225 150.921 8.80703V23.6123C150.921 23.8971 150.693 24.1279 150.412 24.1279H147.91C147.899 24.1279 147.891 24.1193 147.891 24.1086C147.891 24.104 147.889 24.0995 147.887 24.096L138.711 13.4135C138.401 13.0547 137.819 13.2763 137.819 13.7526V23.6123C137.819 23.8971 137.591 24.1279 137.311 24.1279H135.285C135.004 24.1279 134.776 23.8971 134.776 23.6123V8.80703C134.776 8.52225 135.004 8.29138 135.285 8.29138H137.584Z" fill="white"/>
<path d="M6.66346 24.6724C6.91437 24.4217 7.25454 24.2809 7.60925 24.2809H40.3347C40.9308 24.2809 41.2293 25.0018 40.8075 25.4231L34.3411 31.8844C34.0902 32.1352 33.75 32.276 33.3953 32.276H0.669848C0.0737394 32.276 -0.224708 31.5551 0.196953 31.1337L6.66346 24.6724Z" fill="url(#paint0_linear)"/>
<path d="M6.66346 0.534143C6.91437 0.283394 7.25454 0.142578 7.60925 0.142578H40.3347C40.9308 0.142578 41.2293 0.863472 40.8075 1.2849L34.3411 7.74622C34.0902 7.99689 33.75 8.13771 33.3953 8.13771H0.669848C0.0737394 8.13771 -0.224708 7.41681 0.196953 6.99547L6.66346 0.534143Z" fill="url(#paint1_linear)"/>
<path d="M34.3411 12.5269C34.0902 12.2762 33.75 12.1354 33.3953 12.1354H0.669848C0.0737394 12.1354 -0.224708 12.8563 0.196953 13.2776L6.66346 19.7389C6.91437 19.9897 7.25454 20.1305 7.60925 20.1305H40.3347C40.9308 20.1305 41.2293 19.4096 40.8075 18.9882L34.3411 12.5269Z" fill="url(#paint2_linear)"/>
<defs>
<linearGradient id="paint0_linear" x1="27.7217" y1="-8.67288" x2="5.07284" y2="34.7087" gradientUnits="userSpaceOnUse">
<stop stop-color="#00FFA3"/>
<stop offset="1" stop-color="#DC1FFF"/>
</linearGradient>
<linearGradient id="paint1_linear" x1="27.7217" y1="-8.672" x2="5.07285" y2="34.7096" gradientUnits="userSpaceOnUse">
<stop stop-color="#00FFA3"/>
<stop offset="1" stop-color="#DC1FFF"/>
</linearGradient>
<linearGradient id="paint2_linear" x1="27.7217" y1="-8.67194" x2="5.07285" y2="34.7096" gradientUnits="userSpaceOnUse">
<stop stop-color="#00FFA3"/>
<stop offset="1" stop-color="#DC1FFF"/>
</linearGradient>
</defs>
</svg>
