<svg width="115" height="32" viewBox="0 0 115 32" fill="none" xmlns="http://www.w3.org/2000/svg">
<path d="M18.192 15.6301H22.4768C23.0786 15.6301 23.5666 16.1217 23.5666 16.7281C23.5666 17.3345 23.0786 17.8261 22.4768 17.8261H17.3087C17.228 17.8261 17.15 17.8551 17.0886 17.908L15.5282 19.253C15.2893 19.4589 15.4339 19.8531 15.7482 19.8531H22.218C22.2206 19.8531 22.2227 19.8509 22.2227 19.8482C22.2227 19.8454 22.2253 19.8431 22.2279 19.8434C22.3095 19.8498 22.3916 19.8531 22.4747 19.8531C24.1912 19.8531 25.5823 18.454 25.5823 16.7281C25.5823 15.0892 24.3279 13.7449 22.7315 13.6136C22.7289 13.6134 22.7268 13.6111 22.7268 13.6084C22.7268 13.6055 22.7247 13.6031 22.7216 13.6031H18.1055C17.5036 13.6031 17.0157 13.1115 17.0157 12.5051C17.0157 11.8987 17.5036 11.4071 18.1055 11.4071H23.2667C23.3514 11.4071 23.4335 11.375 23.4959 11.317L24.9447 9.97187C25.1718 9.76146 25.0237 9.38013 24.7155 9.38013H18.192C18.1917 9.38013 18.1915 9.38039 18.1915 9.3807C18.1915 9.38101 18.1913 9.38122 18.1909 9.38122C18.1632 9.38049 18.1354 9.38013 18.1075 9.38013C16.3913 9.38013 15 10.7792 15 12.5051C15 14.231 16.3913 15.6301 18.1075 15.6301C18.1354 15.6301 18.1632 15.6298 18.1909 15.629C18.1913 15.629 18.1915 15.6292 18.1915 15.6295C18.1915 15.6299 18.1917 15.6301 18.192 15.6301Z" fill="#F1F1F2"/>
<path d="M43.1489 9.38013C42.9613 9.38013 42.8096 9.5328 42.8096 9.72113V19.5121C42.8096 19.7004 42.9613 19.8531 43.1489 19.8531H50.9948C51.0883 19.8531 51.1782 19.8141 51.2421 19.7453L52.2243 18.6922C52.4275 18.4744 52.2737 18.118 51.977 18.118H45.1262C44.9391 18.118 44.7874 17.9653 44.7874 17.777V9.72113C44.7874 9.5328 44.6351 9.38013 44.4481 9.38013H43.1489Z" fill="#F1F1F2"/>
<path fill-rule="evenodd" clip-rule="evenodd" d="M30.5808 9.38013C30.5803 9.38013 30.5797 9.38054 30.5797 9.38106C30.5797 9.38153 30.5792 9.38195 30.5787 9.38195C29.5758 9.42539 28.7708 10.2324 28.7271 11.2374C28.7271 11.2378 28.7266 11.2382 28.7266 11.2382C28.7261 11.2382 28.7261 11.2383 28.7256 11.2385C28.7256 11.2387 28.7256 11.2389 28.7256 11.2392V17.8252C28.7256 17.8256 28.7261 17.8261 28.7261 17.8261C28.7266 17.8261 28.7271 17.8265 28.7271 17.827C28.7261 17.8547 28.7256 17.8826 28.7256 17.9105C28.7256 18.9548 29.5477 19.8066 30.5787 19.8512C30.5792 19.8512 30.5797 19.8517 30.5797 19.8522V19.8526V19.8529C30.5803 19.853 30.5803 19.8531 30.5808 19.8531H37.6997C37.7002 19.8531 37.7007 19.8526 37.7007 19.8522L37.7012 19.8517V19.8513L37.7017 19.8512C38.7328 19.8066 39.5549 18.9548 39.5549 17.9105C39.5549 17.8826 39.5543 17.8547 39.5533 17.827C39.5533 17.8265 39.5538 17.8261 39.5543 17.8261C39.5543 17.8261 39.5549 17.8256 39.5549 17.8252V11.2392C39.5549 11.2387 39.5543 11.2382 39.5538 11.2382C39.5533 11.2382 39.5533 11.2378 39.5533 11.2374C39.5096 10.2324 38.7047 9.42539 37.7017 9.38195C37.7012 9.38195 37.7007 9.38153 37.7007 9.38106C37.7007 9.38054 37.7002 9.38013 37.6997 9.38013H30.5808ZM31.9075 11.2382L31.907 11.2384V11.2388C31.907 11.2391 31.907 11.2394 31.9065 11.2394C31.2797 11.2667 30.7762 11.7743 30.7492 12.4065C30.7492 12.4068 30.7492 12.4071 30.7486 12.4071C30.7486 12.4071 30.7481 12.4073 30.7481 12.4076V16.5504C30.7481 16.5508 30.7486 16.551 30.7486 16.551C30.7492 16.551 30.7492 16.5513 30.7492 16.5516C30.7486 16.569 30.7481 16.5865 30.7481 16.6041C30.7481 17.261 31.2621 17.7968 31.9065 17.8249C31.907 17.8249 31.907 17.8252 31.907 17.8255V17.8258L31.9075 17.826V17.8261H36.373V17.826L36.3735 17.8258V17.8255C36.3735 17.8252 36.3735 17.8249 36.374 17.8249C37.0184 17.7968 37.5323 17.261 37.5323 16.6041C37.5323 16.5865 37.5318 16.569 37.5313 16.5516V16.5514V16.5513L37.5318 16.551C37.5318 16.551 37.5323 16.5508 37.5323 16.5504V12.4076C37.5323 12.4073 37.5318 12.4071 37.5318 12.4071C37.5313 12.4071 37.5313 12.4068 37.5313 12.4065C37.5043 11.7743 37.0007 11.2667 36.374 11.2394C36.3735 11.2394 36.3735 11.2391 36.3735 11.2388V11.2385L36.373 11.2383V11.2382H31.9075Z" fill="#F1F1F2"/>
<path fill-rule="evenodd" clip-rule="evenodd" d="M63.6322 19.5121C63.6322 19.7004 63.7829 19.8531 63.9684 19.8531H65.2992C65.4848 19.8531 65.6355 19.7004 65.6355 19.5121V11.408C65.6355 11.4075 65.635 11.4071 65.6344 11.4071V11.407L65.6339 11.4069C65.6339 11.4068 65.6339 11.4065 65.6339 11.4062C65.635 11.3785 65.6355 11.3507 65.6355 11.3227C65.6355 10.2784 64.8212 9.42664 63.8 9.38195C63.7995 9.38195 63.799 9.38153 63.799 9.38106C63.799 9.38054 63.7985 9.38013 63.7979 9.38013H56.9633C56.9628 9.38013 56.9623 9.38054 56.9623 9.38101C56.9623 9.38153 56.9618 9.38189 56.9612 9.38189C56.9342 9.3807 56.9067 9.38013 56.8791 9.38013C55.8185 9.38013 54.959 10.2498 54.959 11.3227C54.959 11.3507 54.9595 11.3785 54.9605 11.4062C54.9605 11.4067 54.9605 11.4071 54.96 11.4071C54.9595 11.4071 54.959 11.4075 54.959 11.408V19.5121C54.959 19.7004 55.1097 19.8531 55.2952 19.8531H56.6261C56.8116 19.8531 56.9623 19.7004 56.9623 19.5121V16.14C56.9623 15.9517 57.113 15.799 57.299 15.799H63.2954C63.4815 15.799 63.6322 15.9517 63.6322 16.14V19.5121ZM56.9623 13.9378V12.2517C56.9623 11.5987 57.4856 11.0693 58.131 11.0693H62.4634C63.1089 11.0693 63.6322 11.5987 63.6322 12.2517V13.9378C63.6322 14.1261 63.4815 14.2788 63.2954 14.2788H57.299C57.113 14.2788 56.9623 14.1261 56.9623 13.9378Z" fill="#F1F1F2"/>
<path fill-rule="evenodd" clip-rule="evenodd" d="M91.7212 19.8531C91.5336 19.8531 91.3814 19.7004 91.3814 19.5121V16.14C91.3814 15.9517 91.2296 15.799 91.042 15.799H84.9786C84.791 15.799 84.6393 15.9517 84.6393 16.14V19.5121C84.6393 19.7004 84.487 19.8531 84.2994 19.8531H82.9561C82.7685 19.8531 82.6162 19.7004 82.6162 19.5121V11.408V11.4078L82.6167 11.4075C82.6167 11.4073 82.6173 11.4071 82.6173 11.4071C82.6178 11.4071 82.6183 11.4067 82.6183 11.4062C82.6173 11.3785 82.6162 11.3507 82.6162 11.3227C82.6162 10.2498 83.484 9.38013 84.5551 9.38013C84.5826 9.38013 84.6107 9.3807 84.6382 9.38189C84.6387 9.38189 84.6393 9.38153 84.6393 9.38101C84.6393 9.38054 84.6398 9.38013 84.6398 9.38013H91.5492C91.5497 9.38013 91.5503 9.38054 91.5503 9.38106C91.5503 9.38153 91.5503 9.38195 91.5508 9.38195C92.5818 9.42664 93.4044 10.2784 93.4044 11.3227C93.4044 11.3507 93.4034 11.3785 93.4023 11.4062C93.4023 11.4067 93.4029 11.4071 93.4034 11.4071C93.4034 11.4071 93.4039 11.4072 93.4039 11.4074C93.4039 11.4076 93.4044 11.4078 93.4044 11.408V19.5121C93.4044 19.7004 93.2522 19.8531 93.0646 19.8531H91.7212ZM84.6393 12.2517V13.9378C84.6393 14.1261 84.791 14.2788 84.9786 14.2788H91.042C91.2296 14.2788 91.3814 14.1261 91.3814 13.9378V12.2517C91.3814 11.5987 90.8534 11.0693 90.2017 11.0693H85.8189C85.1672 11.0693 84.6393 11.5987 84.6393 12.2517Z" fill="#F1F1F2"/>
<path d="M70.6439 9.38013C70.7426 9.38013 70.8361 9.42388 70.9001 9.49986L76.8679 16.6139C77.0705 16.8552 77.4603 16.7097 77.4603 16.3927V9.72113C77.4603 9.5328 77.6105 9.38013 77.7965 9.38013H79.1274C79.3129 9.38013 79.4636 9.5328 79.4636 9.72113V19.5121C79.4636 19.7004 79.3129 19.8531 79.1274 19.8531H77.4728C77.4655 19.8531 77.4603 19.8474 77.4603 19.8403C77.4603 19.8373 77.4587 19.8343 77.4572 19.832L71.3891 12.7675C71.1843 12.5302 70.7992 12.6767 70.7992 12.9917V19.5121C70.7992 19.7004 70.6485 19.8531 70.463 19.8531H69.1233C68.9378 19.8531 68.7871 19.7004 68.7871 19.5121V9.72113C68.7871 9.5328 68.9378 9.38013 69.1233 9.38013H70.6439Z" fill="#F1F1F2"/>
<rect x="35" y="31" width="78" height="1" fill="url(#paint0_linear)"/>
<defs>
<linearGradient id="paint0_linear" x1="113.129" y1="31.5" x2="111.113" y2="43.8887" gradientUnits="userSpaceOnUse">
<stop stop-color="#00FFA3"/>
<stop offset="1" stop-color="#DC1FFF"/>
</linearGradient>
</defs>
</svg>
